<svg width="1374" height="1261" viewBox="0 0 1374 1261" fill="none" xmlns="http://www.w3.org/2000/svg">
<g opacity="0.48" clip-path="url(#clip0_71_3191)">
<path d="M573.624 178.531C415.994 217.573 267.232 336.669 182.051 492.152C159.876 532.651 141.437 576.964 140.3 621.331C139.186 665.658 158.687 681.136 195.861 694.854C245.275 713.129 387.903 685.186 439.478 686.923C467.434 687.842 559.348 678.58 562.817 708.196C565.099 727.993 549.694 739.287 535.782 755.022C500.24 795.174 462.882 812.968 446.838 864.003C436.437 896.987 444.972 931.877 463.055 956.417C481.115 980.998 507.591 996.604 535.069 1008.3C604.935 1038.06 683.707 1045.46 762.32 1044.44C859.661 1043.17 961.95 1028.15 1051.68 972.496C1075.59 957.674 1100.9 935.752 1104.03 907.493C1107.48 876.426 1082.82 855.084 1060.47 839.028C1024.2 812.959 987.903 786.93 951.595 760.841C929.69 745.096 905.695 724.94 907.179 694.606C908.458 669.228 927.65 646.607 947.359 629.947C978.609 603.499 1015.82 590.318 1050.02 570.706C1079.35 553.939 1128.77 517.361 1126.78 477.065C1126.37 468.658 1122.96 461.187 1118.55 454.852C1097.59 424.591 1055.79 412.954 1021.82 404.557C977.762 393.647 931.953 388.029 885.456 387.782C833.276 387.511 778.76 393.796 731.431 375.924C715.859 370.031 700.073 359.742 697.277 341.839C692.081 308.609 732.271 281.395 742.71 247.258C755.308 206.037 719.238 171.592 681.751 166.025C644.277 160.519 620.021 169 573.624 178.531Z" fill="#F6F1FF"/>
</g>
<path d="M623.215 481.114C634.391 458.64 651.362 439.843 672.587 426.517C674.672 425.222 672.754 421.922 670.669 423.217C648.902 436.877 631.388 456.134 619.921 479.193C618.795 481.406 622.089 483.328 623.215 481.114Z" fill="white"/>
<path d="M751.316 773.733C755.319 718.426 718.123 663.829 671.086 640.645C666.124 638.222 660.87 643.36 662.663 648.874C664.039 653.051 666.624 657.103 669.376 660.445C673.046 664.915 680.093 671.557 684.138 678.031C686.223 681.373 683.304 685.676 679.676 684.59C649.694 675.483 622.339 659.276 622.339 659.276C608.787 649.542 592.149 640.937 579.889 638.473C573.801 637.261 569.506 644.53 573.134 649.918C578.513 657.939 585.477 667.129 590.147 669.009C582.683 667.839 575.427 659.735 567.379 662.45C564.043 663.578 561.541 666.795 561.499 670.596C561.374 681.791 580.765 683.086 584.935 693.278C579.847 691.942 569.047 689.978 564.001 688.558C563.876 688.516 563.751 688.475 563.584 688.433C552.909 685.551 548.03 702.009 558.205 706.562L608.245 728.994C614.124 731.626 611.706 741.066 605.409 740.022L574.843 734.968C571.09 734.425 567.337 736.513 566.003 740.315C563.418 747.541 571.924 751.718 578.221 754.183C595.276 760.867 608.787 777.325 612.748 796.332C613.499 799.924 632.097 1077.55 632.306 1081.1C636.726 1149.61 732.968 1189.5 770.29 1116.11L751.316 773.733Z" fill="#F6A460"/>
<path d="M659.077 734.927C668.793 741.945 681.512 748.587 687.683 759.197C693.563 769.306 694.564 781.545 695.523 792.908C695.731 795.33 699.526 795.372 699.317 792.908C698.317 780.835 697.149 767.969 690.936 757.276C684.389 745.997 671.212 739.063 660.954 731.627C659.036 730.165 657.117 733.465 659.077 734.927Z" fill="#4F3422"/>
<path d="M683.097 648.959C678.177 648.332 674.132 645.115 671.755 640.813C670.546 638.682 667.252 640.604 668.461 642.734C671.547 648.29 676.801 651.966 683.097 652.76C685.558 653.094 685.516 649.251 683.097 648.959Z" fill="#4F3422"/>
<path d="M630.805 689.978C615.543 680.788 600.281 671.598 585.019 662.408C582.892 661.155 580.974 664.455 583.101 665.708C598.363 674.898 613.625 684.088 628.887 693.278C630.972 694.531 632.932 691.231 630.805 689.978Z" fill="#4F3422"/>
<path d="M624.05 709.528C609.121 703.763 594.651 697.038 580.599 689.393C578.43 688.224 576.512 691.524 578.681 692.693C593.025 700.505 607.828 707.356 623.049 713.204C625.342 714.081 626.301 710.405 624.05 709.528Z" fill="#4F3422"/>
<path d="M663.748 689.902C660.37 693.369 657.868 697.379 656.075 701.849C655.158 704.146 658.869 705.107 659.745 702.851C661.288 699.008 663.539 695.541 666.458 692.575C668.168 690.863 665.458 688.147 663.748 689.902Z" fill="white"/>
<path d="M646.36 710.113C643.525 713.372 640.731 716.63 637.895 719.846C636.311 721.684 638.979 724.4 640.606 722.562C643.441 719.303 646.235 716.045 649.071 712.829C650.655 710.949 647.945 708.234 646.36 710.113Z" fill="white"/>
<path d="M618.963 748.961C617.962 752.345 616.42 755.436 614.335 758.318C612.875 760.323 616.211 762.203 617.629 760.24C619.881 757.107 621.549 753.64 622.633 749.964C623.342 747.625 619.672 746.622 618.963 748.961Z" fill="white"/>
<path d="M568.046 789.772C592.649 744.031 581.766 683.084 550.449 645.197C547.155 641.186 540.65 643.609 540.108 648.998C539.691 653.092 540.358 657.561 541.4 661.488C542.818 666.71 546.279 675.106 547.28 682.207C547.78 685.883 543.652 688.431 540.983 686.092C518.841 666.793 501.661 642.398 501.661 642.398C493.779 628.863 482.854 615.12 473.347 608.311C468.635 604.928 462.129 609.481 463.172 615.496C464.715 624.436 467.133 634.962 470.428 638.346C464.506 634.503 461.421 624.77 453.498 623.976C450.203 623.642 446.826 625.48 445.366 628.655C440.946 638.179 457.042 646.742 456.708 657.06C452.872 653.969 444.407 648.162 440.612 644.988C440.529 644.904 440.404 644.821 440.321 644.737C432.314 638.179 421.806 650.376 428.77 658.188L462.922 696.619C466.925 701.13 461.254 708.273 456.291 704.973L432.106 688.933C429.103 687.011 425.1 687.387 422.515 690.102C417.553 695.282 423.224 702.133 427.644 706.644C439.695 718.925 444.908 738.183 440.988 755.936C440.237 759.32 272.001 1127.48 270.833 1130.57C248.357 1190.8 337.261 1231.07 397.266 1182.66L568.046 789.772Z" fill="#4F3422"/>
<path d="M503.873 721.056C509.544 730.915 518.051 741.692 519.135 753.263C520.178 764.082 516.299 774.901 512.797 784.927C511.963 787.266 515.674 788.269 516.466 785.929C520.344 774.86 524.348 763.038 522.721 751.174C521.095 739.562 512.88 729.077 507.167 719.135C505.958 717.004 502.664 718.926 503.873 721.056Z" fill="#4F3422"/>
<path d="M557.789 656.892C553.87 654.469 551.493 650.376 551.076 645.781C550.867 643.358 547.031 643.316 547.281 645.781C547.781 651.712 550.742 657.018 555.871 660.192C557.956 661.487 559.874 658.187 557.789 656.892Z" fill="#4F3422"/>
<path d="M497.327 671.926C487.778 658.224 478.271 644.481 468.721 630.78C467.345 628.775 464.009 630.696 465.427 632.701C474.976 646.403 484.484 660.146 494.033 673.847C495.409 675.853 498.703 673.973 497.327 671.926Z" fill="#4F3422"/>
<path d="M484.065 685.968C473.515 675.316 463.715 664.037 454.625 652.09C453.165 650.169 449.829 652.048 451.331 654.012C460.588 666.209 470.596 677.78 481.354 688.641C483.106 690.438 485.816 687.722 484.065 685.968Z" fill="#4F3422"/>
<path d="M525.43 684.303C521.218 685.973 517.465 688.355 514.171 691.529C512.419 693.242 515.088 695.957 516.881 694.245C519.633 691.571 522.844 689.399 526.43 688.02C528.724 687.101 527.723 683.384 525.43 684.303Z" fill="white"/>
<path d="M502.37 695.075C498.7 696.788 495.072 698.458 491.403 700.171C489.193 701.215 491.111 704.515 493.321 703.471C496.99 701.758 500.618 700.088 504.288 698.375C506.498 697.331 504.58 694.031 502.37 695.075Z" fill="white"/>
<path d="M464.423 717.509C462.255 720.016 459.795 722.104 456.917 723.775C454.791 724.986 456.709 728.287 458.836 727.075C461.963 725.279 464.757 722.981 467.092 720.224C468.718 718.345 466.008 715.629 464.423 717.509Z" fill="white"/>
<path d="M429.897 774.191C422.475 772.311 415.636 776.655 412.467 783.464C409.006 790.983 411.633 799.38 415.511 806.189C425.31 823.441 440.947 838.688 456.585 850.593C472.639 862.874 490.945 872.273 510.544 877.286C518.55 879.333 528.475 881.296 535.522 875.657C541.986 870.519 542.653 861.704 542.986 854.06C543.112 851.595 539.275 851.595 539.192 854.06C538.775 863.417 537.148 874.195 525.806 875.406C518.259 876.2 510.002 873.359 502.913 871.062C488.777 866.425 475.475 859.449 463.382 850.844C451.164 842.197 440.197 831.837 430.606 820.35C425.268 813.958 419.305 806.941 416.303 799.045C413.009 790.357 416.428 774.65 428.896 777.825C431.273 778.493 432.274 774.817 429.897 774.191Z" fill="#ED7E1C"/>
<path d="M427.187 788.478C414.969 788.437 395.912 794.577 400.708 810.785C402.626 817.176 408.255 821.73 413.551 825.28C421.182 830.376 429.439 834.763 437.82 838.522C470.096 853.017 507.417 858.824 542.445 852.808C549.158 851.681 556.873 849.258 559.917 842.491C562.377 837.06 561.043 830.544 555.747 827.494C553.62 826.283 551.702 829.583 553.829 830.794C559.041 833.802 557.79 840.903 553.787 844.37C550.659 847.127 546.323 848.172 542.32 848.924C533.938 850.469 525.223 851.012 516.716 851.138C500.12 851.346 483.523 849.258 467.51 844.997C451.456 840.736 436.027 834.303 421.724 825.823C415.219 821.938 405.962 816.967 404.127 808.905C401.125 795.622 417.846 792.238 427.187 792.28C429.647 792.322 429.647 788.478 427.187 788.478Z" fill="#ED7E1C"/>
<path d="M781.09 415.45C777.337 409.852 773.459 404.923 769.54 400.62C704.447 316.072 612.499 404.839 585.811 468.585C581.558 461.859 576.596 455.05 575.428 453.17C565.295 436.712 554.328 421.214 540.275 408.432C527.056 396.401 511.669 386.376 495.24 380.444C472.096 369.124 446.284 365.197 421.39 374.847C388.197 387.713 368.932 421.34 374.186 459.186C381.442 511.61 412.883 559.607 441.155 601.547C475.516 652.593 571.175 730.332 571.175 730.332C572.634 729.58 574.052 728.828 575.511 728.035C577.138 729.413 578.013 730.165 578.013 730.165C630.346 704.015 681.303 660.029 720.543 609.776C755.612 564.871 818.203 470.715 781.09 415.45Z" fill="#C2B1FF"/>
<path d="M881.712 950.306C877.459 943.33 776.796 776.866 772.584 769.89C751.526 735.219 736.139 697.916 721.252 660.153C706.199 621.931 714.33 576.399 742.102 546.782C743.353 545.445 748.524 543.023 750.317 542.605C754.028 541.769 757.447 545.738 757.489 549.539C757.531 553.34 755.321 556.808 753.069 559.857C749.316 564.995 745.188 570.049 743.186 576.107C741.185 582.164 741.852 589.599 746.647 593.776C753.569 594.236 756.739 585.422 757.823 578.571C761.784 553.8 765.037 527.984 772.459 504.007C774.211 498.368 781.3 492.603 786.721 494.9C790.14 496.362 791.099 500.707 791.516 504.425C793.976 526.815 790.807 549.038 788.847 571.512C789.64 553.09 793.851 535.086 794.643 516.664C794.852 511.693 794.352 504.884 796.603 500.456C798.855 496.028 803.734 492.519 808.571 493.438C812.908 494.274 815.994 498.368 817.036 502.628C818.12 506.889 818.329 513.072 817.87 517.458C815.702 537.509 815.285 557.768 816.619 577.903C816.869 561.737 818.662 545.612 822.04 529.822C823.166 524.643 824.959 518.794 829.755 516.58C835.509 513.949 842.431 518.377 844.933 524.141C847.477 529.906 846.851 536.506 846.518 542.814C843.766 592.022 847.143 671.724 1032.04 913.463L881.712 950.306Z" fill="#4F3422"/>
<path d="M806.695 493.903C804.443 502.717 807.195 511.949 814.159 517.881C816.036 519.468 818.746 516.795 816.869 515.166C810.948 510.069 808.446 502.509 810.406 494.906C810.99 492.525 807.32 491.522 806.695 493.903Z" fill="white"/>
<path d="M782.841 496.073C778.879 504.051 781.131 513.367 788.178 518.797C790.138 520.301 792.015 516.959 790.096 515.497C784.801 511.403 783.216 503.968 786.135 497.994C787.219 495.78 783.925 493.859 782.841 496.073Z" fill="white"/>
<path d="M832.297 515.911C830.88 521.425 831.38 527.064 833.84 532.244C835.091 534.876 836.843 537.34 838.969 539.345C840.387 540.724 844.515 542.186 845.224 543.606C845.433 542.729 845.683 541.852 845.891 540.975C845.766 541.058 845.599 541.142 845.474 541.225C846.35 541.434 847.226 541.685 848.101 541.894C848.018 541.81 847.976 541.685 847.893 541.601C846.517 539.596 843.181 541.518 844.599 543.523C844.682 543.606 844.724 543.732 844.807 543.815C845.391 544.651 846.475 545.068 847.434 544.484C847.559 544.4 847.726 544.316 847.851 544.233C848.769 543.69 849.019 542.562 848.518 541.601C847.893 540.348 846.934 540.139 845.766 539.471C843.014 537.842 840.679 535.92 838.886 533.247C835.592 528.401 834.591 522.511 836.009 516.83C836.592 514.533 832.923 513.53 832.297 515.911Z" fill="white"/>
<path d="M816.328 546.744C816.287 558.733 817.079 570.638 818.705 582.544C819.039 584.967 822.709 583.922 822.375 581.541C820.832 570.012 820.081 558.441 820.123 546.786C820.165 544.28 816.328 544.28 816.328 546.744Z" fill="white"/>
<path d="M790.098 528.733C788.68 548.157 787.262 567.582 785.802 587.006C785.636 589.471 789.43 589.429 789.639 587.006C791.057 567.582 792.474 548.157 793.934 528.733C794.101 526.31 790.264 526.31 790.098 528.733Z" fill="white"/>
<path d="M841.222 597.616C836.968 597.783 832.923 598.619 828.962 600.206C826.71 601.083 827.711 604.801 829.963 603.882C833.591 602.42 837.302 601.584 841.18 601.417C843.682 601.334 843.682 597.491 841.222 597.616Z" fill="white"/>
<path d="M812.408 602.295C808.239 603.172 804.069 603.548 799.815 603.423C797.355 603.339 797.355 607.182 799.815 607.224C804.402 607.349 808.947 606.931 813.409 605.971C815.786 605.469 814.785 601.793 812.408 602.295Z" fill="white"/>
<path d="M782.258 602.594C777.296 603.054 772.334 603.513 767.371 603.973C764.953 604.182 764.911 608.025 767.371 607.774C772.334 607.315 777.296 606.855 782.258 606.396C784.677 606.187 784.677 602.386 782.258 602.594Z" fill="white"/>
<path d="M730.218 614.997C726.882 616.626 723.295 617.545 719.584 617.712C717.124 617.838 717.124 621.639 719.584 621.514C724.004 621.305 728.174 620.219 732.136 618.255C734.346 617.211 732.428 613.911 730.218 614.997Z" fill="white"/>
<path d="M735.889 557.603C744.646 561.488 754.112 553.76 751.235 544.319C750.526 541.98 746.814 542.983 747.565 545.322C749.358 551.254 743.729 556.935 737.849 554.303C735.597 553.342 733.637 556.601 735.889 557.603Z" fill="white"/>
<path d="M954.718 1082.42L789.764 817.175L924.996 737.222L1109.54 1010.77L954.718 1082.42Z" fill="#C2B1FF"/>
<path d="M762.202 724.065C763.202 730.08 759.116 735.803 753.111 736.806C747.106 737.808 741.394 733.714 740.393 727.699C739.392 721.684 743.479 715.961 749.483 714.958C755.488 713.956 761.201 718.05 762.202 724.065Z" fill="white"/>
<path d="M784.719 719.389C785.72 725.404 781.633 731.127 775.628 732.129C769.623 733.132 763.911 729.038 762.91 723.023C761.909 717.008 765.996 711.285 772 710.282C778.047 709.28 783.718 713.332 784.719 719.389Z" fill="white"/>
<path d="M821.497 704.352C822.497 710.368 818.411 716.091 812.406 717.093C806.401 718.096 800.688 714.002 799.688 707.987C798.687 701.971 802.773 696.248 808.778 695.246C814.825 694.243 820.496 698.337 821.497 704.352Z" fill="white"/>
<path d="M853.107 691.021C854.108 697.036 850.022 702.759 844.017 703.762C838.012 704.764 832.299 700.671 831.299 694.655C830.298 688.64 834.384 682.917 840.389 681.915C846.435 680.912 852.107 684.964 853.107 691.021Z" fill="white"/>
<path d="M880.253 672.559C881.254 678.575 877.167 684.297 871.162 685.3C865.158 686.303 859.445 682.209 858.444 676.194C857.443 670.178 861.53 664.455 867.535 663.453C873.539 662.45 879.252 666.544 880.253 672.559Z" fill="white"/>
<path d="M284.491 950.306C288.744 943.33 389.407 776.866 393.619 769.89C414.677 735.219 430.064 697.916 444.951 660.153C460.005 621.931 451.873 576.399 424.101 546.782C422.85 545.445 417.68 543.023 415.887 542.605C412.175 541.769 408.756 545.738 408.714 549.539C408.673 553.34 410.883 556.808 413.134 559.857C416.887 564.995 421.016 570.049 423.017 576.107C425.019 582.164 424.352 589.599 419.556 593.776C412.634 594.236 409.465 585.422 408.381 578.571C404.419 553.8 401.167 527.984 393.744 504.007C391.993 498.368 384.904 492.603 379.483 494.9C376.063 496.362 375.104 500.707 374.687 504.425C372.227 526.815 375.396 549.038 377.356 571.512C376.564 553.09 372.352 535.086 371.56 516.664C371.351 511.693 371.852 504.884 369.6 500.456C367.348 496.028 362.469 492.519 357.632 493.438C353.295 494.274 350.21 498.368 349.167 502.628C348.083 506.889 347.875 513.072 348.333 517.458C350.502 537.509 350.919 557.768 349.584 577.903C349.334 561.737 347.541 545.612 344.163 529.822C343.037 524.643 341.244 518.794 336.449 516.58C330.694 513.949 323.772 518.377 321.27 524.141C318.726 529.906 319.352 536.506 319.686 542.814C322.438 592.022 319.06 671.724 134.164 913.463L284.491 950.306Z" fill="#C0A091"/>
<path d="M355.837 494.906C357.797 502.509 355.295 510.069 349.374 515.166C347.497 516.753 350.208 519.468 352.084 517.881C359.048 511.949 361.8 502.717 359.549 493.903C358.923 491.522 355.212 492.525 355.837 494.906Z" fill="#4F3422"/>
<path d="M380.064 497.994C383.025 503.926 381.399 511.403 376.103 515.497C374.185 516.959 376.103 520.301 378.021 518.797C385.027 513.367 387.278 504.051 383.359 496.073C382.274 493.859 378.98 495.78 380.064 497.994Z" fill="#4F3422"/>
<path d="M330.193 516.917C331.653 522.598 330.61 528.446 327.316 533.333C325.69 535.756 323.521 537.72 321.019 539.223C319.685 540.017 318.392 540.268 317.642 541.688C317.183 542.607 317.391 543.735 318.309 544.32C318.434 544.403 318.601 544.487 318.726 544.57C319.643 545.155 320.769 544.737 321.353 543.902C321.436 543.818 321.478 543.693 321.561 543.61C322.979 541.604 319.643 539.683 318.267 541.688C318.184 541.772 318.142 541.897 318.059 541.98C318.934 541.772 319.81 541.521 320.686 541.312C320.561 541.229 320.394 541.145 320.269 541.061C320.477 541.939 320.727 542.816 320.936 543.693C321.645 542.273 325.731 540.811 327.191 539.432C329.317 537.427 331.069 534.963 332.32 532.331C334.78 527.151 335.281 521.512 333.863 515.998C333.279 513.533 329.609 514.536 330.193 516.917Z" fill="#4F3422"/>
<path d="M346.082 546.741C346.123 558.395 345.414 569.966 343.83 581.495C343.496 583.918 347.166 584.921 347.499 582.498C349.084 570.635 349.918 558.729 349.876 546.699C349.876 544.276 346.04 544.276 346.082 546.741Z" fill="#4F3422"/>
<path d="M372.309 528.733C373.727 548.157 375.144 567.582 376.604 587.006C376.771 589.429 380.607 589.471 380.399 587.006C378.981 567.582 377.563 548.157 376.103 528.733C375.937 526.31 372.142 526.31 372.309 528.733Z" fill="#4F3422"/>
<path d="M324.98 601.417C328.858 601.584 332.611 602.42 336.239 603.882C338.533 604.801 339.492 601.083 337.24 600.206C333.278 598.619 329.234 597.783 324.98 597.616C322.52 597.491 322.52 601.334 324.98 601.417Z" fill="white"/>
<path d="M352.792 605.971C357.296 606.931 361.8 607.349 366.387 607.224C368.847 607.14 368.847 603.339 366.387 603.423C362.133 603.548 357.963 603.214 353.793 602.295C351.416 601.793 350.416 605.469 352.792 605.971Z" fill="white"/>
<path d="M383.942 606.435C388.904 606.894 393.867 607.354 398.829 607.813C401.289 608.022 401.247 604.221 398.829 604.012C393.867 603.553 388.904 603.093 383.942 602.634C381.524 602.383 381.524 606.184 383.942 606.435Z" fill="white"/>
<path d="M434.026 618.299C437.987 620.262 442.157 621.348 446.577 621.557C449.037 621.683 449.037 617.839 446.577 617.756C442.866 617.589 439.28 616.67 435.944 615.041C433.775 613.913 431.816 617.213 434.026 618.299Z" fill="white"/>
<path d="M428.394 554.3C422.473 556.932 416.843 551.251 418.678 545.319C419.387 542.98 415.717 541.935 415.009 544.316C412.131 553.757 421.597 561.485 430.354 557.6C432.564 556.598 430.604 553.339 428.394 554.3Z" fill="#4F3422"/>
<path d="M376.437 817.175L241.205 737.222L215.852 773.439C261.263 801.093 305.923 829.874 351.584 856.734L376.437 817.175Z" fill="white"/>
<path d="M215.894 773.484L71.8977 975.36L215.894 1068.42L351.627 856.779C305.966 829.919 261.263 801.138 215.894 773.484Z" fill="#C2B1FF"/>
<path d="M324.022 863.294C324.022 867.555 320.561 871.022 316.308 871.022C312.055 871.022 308.594 867.555 308.594 863.294C308.594 859.034 312.055 855.566 316.308 855.566C320.561 855.566 324.022 859.034 324.022 863.294Z" fill="#4F3422"/>
<path d="M308.593 892.287C308.593 896.548 305.132 900.015 300.879 900.015C296.626 900.015 293.165 896.548 293.165 892.287C293.165 888.026 296.626 884.559 300.879 884.559C305.132 884.559 308.593 888.026 308.593 892.287Z" fill="#4F3422"/>
<path d="M623.089 469.207C633.264 446.274 648.693 426.349 668.375 410.809C670.293 409.305 667.583 406.59 665.665 408.094C645.774 423.801 630.053 444.06 619.795 467.244C618.794 469.5 622.089 471.463 623.089 469.207Z" fill="white"/>
<path d="M688.476 398.864C695.273 395.814 702.362 393.768 709.701 392.64C712.12 392.264 711.077 388.588 708.701 388.964C700.986 390.133 693.647 392.389 686.558 395.606C684.306 396.566 686.224 399.866 688.476 398.864Z" fill="white"/>
<path d="M418.763 412.566C434.609 396.734 456.376 388.797 478.685 390.635C481.146 390.844 481.104 387.001 478.685 386.834C455.459 384.913 432.566 393.351 416.053 409.851C414.343 411.605 417.053 414.279 418.763 412.566Z" fill="white"/>
<defs>
<clipPath id="clip0_71_3191">
<rect width="1118.26" height="810.453" fill="white" transform="translate(405.226) rotate(30)"/>
</clipPath>
</defs>
</svg>
