<svg width="686" height="684" viewBox="0 0 686 684" fill="none" xmlns="http://www.w3.org/2000/svg">
<path fill-rule="evenodd" clip-rule="evenodd" d="M633.088 426.75C607.233 457.567 539.787 443.556 482.461 395.458C425.136 347.327 426.373 305.805 452.26 274.957C478.115 244.141 518.786 235.69 576.143 283.789C633.437 331.919 658.943 395.934 633.088 426.75Z" fill="#7D944D"/>
<path d="M613.483 365.181C603.807 365.181 594.512 361.083 587.945 353.745L547.116 308.092C541.469 301.77 538.36 293.637 538.36 285.155V263.075C538.36 260.692 540.295 258.786 542.643 258.786C545.022 258.786 546.925 260.724 546.925 263.075V285.155C546.925 291.509 549.241 297.608 553.492 302.342L594.321 347.994C600.032 354.348 608.47 357.493 616.909 356.35L632.771 354.221C635.119 353.935 637.276 355.555 637.593 357.906C637.91 360.257 636.261 362.418 633.913 362.735L618.051 364.864C616.56 365.054 615.005 365.181 613.483 365.181Z" fill="white"/>
<path fill-rule="evenodd" clip-rule="evenodd" d="M327.981 549.871C519.31 549.871 561.154 429.625 536.06 303.342C510.966 177.059 424.264 60.2118 327.981 60.2118C231.699 60.2118 143.854 169.085 119.934 303.342C96.0143 437.631 136.653 549.871 327.981 549.871Z" fill="#9BB168"/>
<path fill-rule="evenodd" clip-rule="evenodd" d="M324.207 129.056H372.269C422.361 129.056 462.968 169.721 462.968 219.884C462.968 270.048 422.361 310.713 372.269 310.713H324.207C274.114 310.713 233.507 270.048 233.507 219.884C233.507 169.689 274.114 129.056 324.207 129.056Z" fill="#7D944D"/>
<path fill-rule="evenodd" clip-rule="evenodd" d="M335.469 121.145H383.531C433.623 121.145 474.23 161.81 474.23 211.973C474.23 262.137 433.623 302.802 383.531 302.802H335.469C285.376 302.802 244.769 262.137 244.769 211.973C244.769 161.81 285.376 121.145 335.469 121.145Z" fill="white"/>
<path d="M295.052 550.793C292.672 550.793 290.769 548.855 290.769 546.504V498.755C290.769 479.82 306.155 464.381 325.095 464.381H391.43C405.611 464.381 417.158 452.816 417.158 438.616V425.59C417.158 423.208 419.093 421.301 421.441 421.301C423.82 421.301 425.724 423.239 425.724 425.59V438.616C425.724 457.55 410.337 472.99 391.398 472.99H325.095C310.914 472.99 299.366 484.554 299.366 498.755V546.472C299.366 548.855 297.431 550.793 295.052 550.793Z" fill="#7D944D"/>
<path d="M421.441 334.73C419.062 334.73 417.158 332.792 417.158 330.441V327.455C417.158 315.605 426.77 305.979 438.604 305.979H533.903C536.282 305.979 538.186 307.916 538.186 310.267C538.186 312.65 536.251 314.556 533.903 314.556H438.604C431.497 314.556 425.724 320.338 425.724 327.455V330.441C425.724 332.824 423.82 334.73 421.441 334.73Z" fill="#7D944D"/>
<path fill-rule="evenodd" clip-rule="evenodd" d="M379.418 333.267L436.012 332.28C461.222 331.837 482.017 351.927 482.478 377.16C482.478 377.16 482.478 377.16 482.473 377.191C482.903 402.418 462.841 423.248 437.63 423.69L381.037 424.678C355.827 425.121 335.031 405.03 334.57 379.798C334.57 379.798 334.57 379.798 334.576 379.766C334.151 354.508 354.213 333.679 379.418 333.267Z" fill="#926247"/>
<path fill-rule="evenodd" clip-rule="evenodd" d="M392.905 332.229L448.398 331.273C473.9 330.817 494.969 351.182 495.413 376.702L495.407 376.733C495.845 402.284 475.514 423.356 449.985 423.775L394.493 424.731C368.99 425.187 347.947 404.859 347.473 379.334L347.478 379.303C347.04 353.752 367.371 332.68 392.905 332.229Z" fill="white"/>
<path d="M394.25 401.226C382.715 401.218 373.199 391.924 372.985 380.309C372.762 368.564 382.141 358.839 393.876 358.624L394.231 358.623C394.362 358.614 394.487 358.636 394.617 358.626C406.152 358.635 415.668 367.928 415.881 379.543C416.104 391.289 406.725 401.014 394.99 401.228L394.636 401.23C394.511 401.208 394.38 401.217 394.25 401.226ZM394.044 367.2C387.032 367.314 381.434 373.129 381.559 380.116C381.678 387.136 387.466 392.706 394.479 392.592L394.833 392.59C401.815 392.47 407.413 386.656 407.288 379.668C407.168 372.649 401.329 367.005 394.368 367.193L394.044 367.2Z" fill="#926247"/>
<path d="M429.663 372.766C427.378 372.749 425.47 370.961 425.391 368.658C425.293 366.287 427.126 364.29 429.495 364.193L462.056 362.794C464.425 362.697 466.421 364.533 466.52 366.903C466.619 369.274 464.785 371.271 462.416 371.368L429.856 372.768C429.793 372.757 429.731 372.746 429.663 372.766Z" fill="#926247"/>
<path d="M430.902 390.247C428.617 390.23 426.708 388.442 426.63 386.139C426.531 383.768 428.365 381.77 430.734 381.674L449.53 380.87C451.899 380.773 453.895 382.61 453.994 384.981C454.093 387.352 452.259 389.349 449.89 389.446L431.095 390.249C431.027 390.269 430.964 390.258 430.902 390.247Z" fill="#926247"/>
<path fill-rule="evenodd" clip-rule="evenodd" d="M356.102 176.413C361.685 176.413 366.222 180.956 366.222 186.547V189.978C366.222 195.57 361.685 200.113 356.102 200.113C350.518 200.113 345.982 195.57 345.982 189.978V186.547C345.982 180.956 350.518 176.413 356.102 176.413Z" fill="#926247"/>
<path fill-rule="evenodd" clip-rule="evenodd" d="M427.861 176.413C433.445 176.413 437.981 180.956 437.981 186.547V189.978C437.981 195.57 433.445 200.113 427.861 200.113C422.278 200.113 417.741 195.57 417.741 189.978V186.547C417.741 180.956 422.278 176.413 427.861 176.413Z" fill="#926247"/>
<path d="M383.733 245.13C372.186 245.13 362.796 235.727 362.796 224.163C362.796 221.78 364.731 219.874 367.078 219.874C369.458 219.874 371.361 221.812 371.361 224.163C371.361 230.993 376.913 236.553 383.733 236.553L402.927 236.394C409.779 236.33 415.299 230.898 415.489 224.035C415.553 221.653 417.551 219.81 419.899 219.874C422.278 219.937 424.118 221.907 424.055 224.29C423.738 235.79 414.474 244.876 402.99 245.003L383.733 245.13Z" fill="#4F3422"/>
<path fill-rule="evenodd" clip-rule="evenodd" d="M93.6207 468.224C128.422 488.334 186.89 452.117 224.261 387.308C261.632 322.499 246.277 283.931 211.476 263.789C176.675 243.711 135.623 249.684 98.2524 314.493C60.8813 379.302 58.8192 448.114 93.6207 468.224Z" fill="#7D944D"/>
<path d="M176.452 448.21C174.739 448.21 173.09 447.161 172.455 445.446L160.114 413.359C157.608 406.846 158.179 399.666 161.701 393.63L187.365 349.375C191.458 342.354 199.04 337.97 207.161 337.97H241.011C243.39 337.97 245.294 339.908 245.294 342.259C245.294 344.61 243.359 346.548 241.011 346.548H207.13C202.054 346.548 197.327 349.28 194.757 353.664L169.092 397.919C166.903 401.699 166.554 406.179 168.109 410.245L180.45 442.396C181.306 444.62 180.196 447.098 177.975 447.955C177.467 448.114 176.96 448.21 176.452 448.21Z" fill="white"/>
<path d="M500.502 683.684C537.226 683.684 566.996 653.872 566.996 617.096C566.996 580.32 537.226 550.508 500.502 550.508C463.779 550.508 434.008 580.32 434.008 617.096C434.008 653.872 463.779 683.684 500.502 683.684Z" fill="#ED7E1C"/>
<path fill-rule="evenodd" clip-rule="evenodd" d="M470.166 580.613H530.627C533.971 580.613 536.679 583.317 536.679 586.654V593.688C536.679 597.025 533.971 599.729 530.627 599.729H470.166C466.822 599.729 464.114 597.025 464.114 593.688V586.654C464.114 583.317 466.822 580.613 470.166 580.613Z" fill="#4F3422"/>
<path fill-rule="evenodd" clip-rule="evenodd" d="M472.819 599.729H528.721V649.02C528.721 652.357 526.013 655.061 522.669 655.061H478.871C475.527 655.061 472.819 652.357 472.819 649.02V599.729Z" fill="white"/>
<path fill-rule="evenodd" clip-rule="evenodd" d="M483.264 608.776H520.541C522.199 608.776 523.553 610.127 523.553 611.782V630.897C523.553 632.552 522.199 633.904 520.541 633.904H483.264C481.606 633.904 480.252 632.552 480.252 630.897V611.782C480.252 610.127 481.606 608.776 483.264 608.776Z" fill="white"/>
<path d="M516.424 623.533H491.803C490.145 623.533 488.791 622.181 488.791 620.526C488.791 618.871 490.145 617.52 491.803 617.52H516.424C518.082 617.52 519.436 618.871 519.436 620.526C519.464 622.181 518.11 623.533 516.424 623.533Z" fill="#4F3422"/>
<path d="M141.053 160.608C167.02 134.604 167.02 92.4425 141.053 66.4384C115.086 40.4343 72.9843 40.4343 47.0171 66.4384C21.0499 92.4425 21.0499 134.604 47.0171 160.608C72.9843 186.612 115.086 186.612 141.053 160.608Z" fill="#ED7E1C"/>
<path d="M101.046 125.95H89.34V147.744H101.046V125.95Z" fill="#4F3422"/>
<path fill-rule="evenodd" clip-rule="evenodd" d="M60.1852 75.1831H130.232C132.612 75.1831 134.515 77.121 134.515 79.472V124.489C134.515 126.872 132.58 128.778 130.232 128.778H60.1852C57.8059 128.778 55.9025 126.84 55.9025 124.489V79.472C55.9025 77.121 57.8059 75.1831 60.1852 75.1831Z" fill="white"/>
<path d="M116.559 152.478H75.1908C72.8115 152.478 70.9081 150.54 70.9081 148.189C70.9081 145.838 72.8433 143.9 75.1908 143.9H116.559C118.938 143.9 120.842 145.838 120.842 148.189C120.842 150.54 118.938 152.478 116.559 152.478Z" fill="#4F3422"/>
<path d="M73.5094 116.896C72.399 116.896 71.3204 116.483 70.4639 115.625C68.7825 113.941 68.7825 111.241 70.4639 109.557L86.3894 93.6091C88.0708 91.9253 90.7673 91.9253 92.4487 93.6091L100.253 101.424L113.514 88.1448C115.195 86.461 117.891 86.461 119.573 88.1448C121.254 89.8286 121.254 92.5289 119.573 94.2127L103.267 110.542C101.585 112.226 98.8887 112.226 97.2073 110.542L89.4349 102.759L76.5549 115.657C75.7301 116.483 74.6197 116.896 73.5094 116.896Z" fill="#4F3422"/>
<path d="M665.756 220.819C691.723 194.815 691.723 152.654 665.756 126.65C639.788 100.646 597.687 100.646 571.72 126.65C545.753 152.654 545.753 194.815 571.72 220.819C597.687 246.824 639.788 246.824 665.756 220.819Z" fill="#ED7E1C"/>
<path fill-rule="evenodd" clip-rule="evenodd" d="M600.703 195.633C591.884 186.96 588.458 176.731 590.361 165.008C593.216 147.408 611.743 139.751 625.734 144.167C639.724 148.583 645.593 156.621 647.274 168.788C648.385 176.921 644.927 185.848 636.837 195.633L633.887 200.557V209.929C633.887 218.221 627.193 224.925 618.913 224.925C610.633 224.925 603.939 218.221 603.939 209.929V201.638L600.703 195.633Z" fill="white"/>
<path fill-rule="evenodd" clip-rule="evenodd" d="M614.694 177.302H608.254C607.461 177.302 606.826 176.667 606.826 175.873C606.826 175.587 606.921 175.301 607.08 175.079L618.406 158.495C618.85 157.828 619.738 157.669 620.404 158.114C620.785 158.368 621.039 158.813 621.039 159.289V167.009C621.039 167.803 621.673 168.439 622.466 168.439H627.859C628.652 168.439 629.287 169.074 629.287 169.868C629.287 170.154 629.224 170.409 629.065 170.631L618.786 186.929C618.374 187.596 617.486 187.786 616.819 187.373C616.407 187.119 616.153 186.643 616.153 186.166V178.764C616.121 177.97 615.487 177.302 614.694 177.302Z" fill="#4F3422"/>
<path fill-rule="evenodd" clip-rule="evenodd" d="M654 164.912L660.408 163.8C662.153 163.483 663.834 164.658 664.12 166.405C664.437 168.153 663.263 169.805 661.519 170.122L655.11 171.234C653.365 171.552 651.684 170.377 651.399 168.629C651.081 166.882 652.255 165.23 654 164.912Z" fill="#4F3422"/>
<path fill-rule="evenodd" clip-rule="evenodd" d="M643.531 141.943L647.338 136.765C648.385 135.335 650.415 134.986 651.874 136.034C653.302 137.083 653.619 139.084 652.604 140.514C652.604 140.514 652.604 140.514 652.604 140.545L648.797 145.724C647.75 147.153 645.72 147.503 644.261 146.454C642.833 145.406 642.484 143.405 643.531 141.943C643.531 141.975 643.531 141.975 643.531 141.943Z" fill="#4F3422"/>
<path fill-rule="evenodd" clip-rule="evenodd" d="M616.026 133.81V128.663C616.026 126.503 617.771 124.724 619.96 124.724C622.149 124.724 623.894 126.471 623.894 128.663V133.81C623.894 135.97 622.149 137.749 619.96 137.749C617.771 137.749 616.026 135.97 616.026 133.81Z" fill="#4F3422"/>
<path fill-rule="evenodd" clip-rule="evenodd" d="M587.665 144.739L583.096 140.196C581.828 138.957 581.828 136.924 583.065 135.653C583.065 135.653 583.065 135.653 583.096 135.621C584.365 134.351 586.396 134.351 587.665 135.621L592.233 140.164C593.502 141.403 593.502 143.437 592.265 144.707C592.265 144.707 592.265 144.707 592.233 144.739C590.964 145.978 588.934 145.978 587.665 144.739Z" fill="#4F3422"/>
<path fill-rule="evenodd" clip-rule="evenodd" d="M581.447 168.312L574.943 167.74C573.167 167.581 571.866 166.024 572.025 164.277C572.183 162.498 573.738 161.195 575.514 161.354L582.018 161.926C583.794 162.085 585.095 163.642 584.937 165.389C584.778 167.168 583.223 168.47 581.447 168.312Z" fill="#4F3422"/>
<path d="M630.429 205.037C630.397 205.037 630.397 205.037 630.429 205.037L607.492 204.91C605.113 204.91 603.209 202.972 603.241 200.589C603.241 198.238 605.176 196.332 607.524 196.332C607.524 196.332 607.524 196.332 607.555 196.332L630.46 196.459C632.84 196.459 634.743 198.397 634.711 200.78C634.68 203.131 632.776 205.037 630.429 205.037Z" fill="#4F3422"/>
<path d="M625.195 220.509H612.6C610.221 220.509 608.317 218.571 608.317 216.22C608.317 213.869 610.253 211.931 612.6 211.931H625.195C627.574 211.931 629.477 213.869 629.477 216.22C629.477 218.571 627.542 220.509 625.195 220.509Z" fill="#4F3422"/>
<path d="M524.777 53.2876C518.513 56.9041 510.369 56.25 504.742 51.135C504.351 50.7741 503.904 50.4449 503.462 50.1866C501.602 49.0593 499.408 48.7486 497.293 49.2728C495.178 49.7969 493.409 51.1115 492.285 52.9712L491.91 53.5911C491.625 54.0491 491.34 54.5072 491.012 54.9535C488.061 59.0419 483.701 61.7057 478.718 62.5285C473.746 63.3078 468.741 62.1256 464.68 59.1514L462.641 57.6505C462.269 57.388 461.887 57.1689 461.504 56.9498C459.479 55.9176 457.179 55.7413 455.034 56.4665C452.872 57.1641 451.144 58.6755 450.115 60.7002C449.682 61.537 449.191 62.3346 448.667 63.0772C445.989 66.7509 442.053 69.1334 437.573 69.8124C433.093 70.4914 428.62 69.4056 424.945 66.7214L418.355 61.9055C416.451 60.5105 416.032 57.8177 417.423 55.9137C418.815 54.0097 421.505 53.5936 423.41 54.9886L430 59.8045C431.802 61.1487 434.025 61.6996 436.235 61.3405C438.461 61.0089 440.408 59.8118 441.749 58.0104C442.01 57.6391 442.256 57.2403 442.459 56.8299C444.501 52.7529 448.028 49.7259 452.351 48.3306C456.686 46.892 461.301 47.2721 465.378 49.3205C466.155 49.7154 466.953 50.2087 467.695 50.7337L469.762 52.2187C471.978 53.837 474.69 54.4726 477.407 54.0407C480.125 53.6088 482.495 52.1303 484.11 49.9143C484.266 49.6773 484.45 49.4245 484.606 49.1876L484.981 48.5677C487.28 44.7458 490.911 42.0257 495.267 40.9414C499.596 39.873 504.114 40.5293 507.936 42.8348C508.879 43.3905 509.772 44.0488 510.571 44.7981C514.047 47.9637 519.435 47.7145 522.594 44.2399C522.899 43.8802 523.204 43.5206 523.478 43.106L527.543 36.7601C528.817 34.7778 531.482 34.1924 533.465 35.469C535.447 36.7455 536.063 39.3982 534.762 41.3964L530.697 47.7422C530.177 48.5556 529.599 49.3299 528.945 50.0375C527.645 51.3385 526.261 52.431 524.777 53.2876Z" fill="#FFCE5C"/>
<path d="M20.7159 284.488C9.29518 284.488 0 275.18 0 263.743C0 252.306 9.29518 242.997 20.7159 242.997C32.1366 242.997 41.4318 252.306 41.4318 263.743C41.4635 275.148 32.1366 284.488 20.7159 284.488ZM20.7159 251.543C14.0221 251.543 8.56553 257.008 8.56553 263.711C8.56553 270.414 14.0221 275.879 20.7159 275.879C27.4097 275.879 32.8662 270.414 32.8662 263.711C32.8662 257.008 27.4097 251.543 20.7159 251.543Z" fill="#C2B1FF"/>
<path d="M67.0364 614.944C65.7992 614.944 64.5936 614.436 63.7371 613.419C62.2143 611.609 62.4364 608.876 64.2764 607.383L131.373 550.993C134.672 548.229 136.671 544.353 137.052 540.064C137.432 535.775 136.1 531.614 133.34 528.31C130.58 525.006 126.71 523.004 122.427 522.623C118.144 522.242 113.988 523.576 110.689 526.34L43.5922 582.73C41.784 584.255 39.0874 584.033 37.5646 582.19C36.0419 580.379 36.264 577.647 38.104 576.154L105.201 519.732C110.245 515.507 116.621 513.473 123.188 514.045C129.755 514.617 135.688 517.73 139.907 522.75C144.126 527.801 146.156 534.187 145.585 540.763C145.014 547.339 141.905 553.28 136.861 557.505L69.7647 613.928C68.9716 614.627 67.9881 614.944 67.0364 614.944Z" fill="#7D944D"/>
<path d="M335.389 670.162C321.208 670.162 309.661 658.28 309.661 643.666C309.661 629.052 321.208 617.171 335.389 617.171C337.768 617.171 339.672 619.108 339.672 621.459C339.672 623.842 337.736 625.748 335.389 625.748C325.935 625.748 318.226 633.786 318.226 643.634C318.226 653.515 325.935 661.52 335.389 661.52C337.768 661.52 339.672 663.458 339.672 665.809C339.672 668.16 337.768 670.162 335.389 670.162Z" fill="#FFCE5C"/>
</svg>
