<svg width="858" height="911" viewBox="0 0 858 911" fill="none" xmlns="http://www.w3.org/2000/svg">
<path d="M16.3248 641.224C4.57428 636.483 -2.46933 622.329 0.802106 610.078C4.07355 597.827 17.2595 589.114 29.8111 590.85C36.2538 591.751 42.1291 594.99 47.804 598.194C55.0145 602.233 62.2251 606.273 69.4356 610.312C51.476 603.969 42.7633 581.837 46.7024 563.176C49.5399 549.757 58.7533 536.938 72.006 533.433C82.8218 530.562 94.3052 534.201 104.286 539.308C135.098 555.131 156.696 584.207 175.023 613.583C169.281 605.672 175.657 593.521 184.937 590.383C194.184 587.245 204.399 590.516 213.145 594.889C232.64 604.67 248.897 623.298 260.114 642.025L16.3248 641.224Z" fill="#F2F5EB"/>
<path d="M43.0948 244.136C33.3495 240.129 27.5551 228.287 30.2328 218.003C32.9545 207.72 43.8411 200.419 54.2448 201.888C59.6003 202.645 64.429 205.36 69.126 208.031C75.0961 211.415 81.0662 214.843 87.0363 218.226C72.155 212.928 64.9558 194.32 68.2042 178.649C70.5747 167.386 78.1689 156.613 89.1433 153.674C98.0984 151.27 107.624 154.298 115.833 158.616C141.338 171.882 159.204 196.323 174.392 220.986C169.651 214.353 174.919 204.158 182.601 201.487C190.283 198.861 198.712 201.621 205.955 205.271C222.109 213.463 235.542 229.133 244.848 244.848L43.0948 244.136Z" fill="#F2F5EB"/>
<path d="M700.778 285.027C713.276 279.947 720.707 264.933 717.273 251.895C713.782 238.856 699.821 229.6 686.479 231.462C679.611 232.422 673.418 235.865 667.394 239.252C659.738 243.541 652.082 247.887 644.426 252.177C663.51 245.46 672.742 221.867 668.577 201.999C665.537 187.719 655.797 174.06 641.723 170.335C630.239 167.287 618.023 171.125 607.495 176.6C574.787 193.42 551.875 224.407 532.396 255.676C538.476 247.266 531.721 234.341 521.869 230.954C512.017 227.624 501.208 231.124 491.919 235.752C471.202 246.138 453.976 266.005 442.041 285.93L700.778 285.027Z" fill="#F2F5EB"/>
<path d="M832.213 554.166C850.623 546.703 861.658 524.421 856.533 505.135C851.407 485.848 830.748 472.132 811.083 474.865C800.989 476.284 791.784 481.382 782.893 486.427C771.596 492.785 760.299 499.144 749.002 505.503C777.14 495.518 790.79 460.676 784.619 431.3C780.173 410.174 765.738 389.994 744.974 384.476C728.029 379.957 710.037 385.685 694.399 393.725C646.125 418.635 612.286 464.407 583.573 510.653C592.569 498.198 582.579 479.069 568.04 474.129C553.552 469.19 537.548 474.34 523.845 481.224C493.301 496.622 467.831 525.945 450.257 555.427L832.213 554.166Z" fill="#F2F5EB"/>
<path d="M282.506 89.641C271.941 85.7341 265.635 74.0661 268.578 63.982C271.521 53.898 283.347 46.6649 294.594 48.1432C300.375 48.8823 305.631 51.575 310.729 54.2148C317.194 57.5409 323.658 60.8671 330.123 64.246C313.988 59.0192 306.157 40.7517 309.731 25.3881C312.253 14.3537 320.558 3.74164 332.436 0.837856C342.159 -1.53797 352.46 1.47141 361.395 5.6951C389.04 18.7357 408.434 42.758 424.885 66.9386C419.734 60.3919 425.463 50.4134 433.767 47.7736C442.071 45.1866 451.216 47.8792 459.048 51.5222C476.549 59.6 491.16 74.9636 501.199 90.3801L282.506 89.641Z" fill="#F2F5EB"/>
<path d="M428.911 252.995C432.901 267.168 449.11 273.883 461.945 266.673C478.4 257.403 498.27 271.082 495.596 289.786C493.498 304.371 505.551 317.101 520.197 315.701C538.997 313.929 551.585 334.529 541.547 350.514C533.69 362.998 539.573 379.519 553.519 384.215C571.373 390.272 574.581 414.209 558.867 424.715C546.649 432.913 545.291 450.382 556.11 460.393C569.974 473.206 563.145 496.36 544.551 499.574C530.07 502.087 521.719 517.496 527.519 531.051C535.006 548.396 519.333 566.77 501.067 562.156C486.792 558.531 472.929 569.242 472.723 583.951C472.517 602.861 450.755 613.285 435.904 601.584C424.345 592.479 407.313 596.599 401.184 609.989C393.326 627.169 369.178 627.828 360.375 611.101C353.505 598.082 336.268 594.869 325.243 604.633C311.091 617.116 288.794 607.888 287.519 589.018C286.532 574.31 272.092 564.381 258.064 568.789C240.045 574.434 223.426 556.883 229.966 539.167C235.068 525.324 225.894 510.368 211.249 508.679C192.531 506.496 184.426 483.712 197.591 470.158C207.834 459.611 205.53 442.183 192.901 434.685C176.692 425.044 178.544 400.942 196.069 393.939C209.726 388.459 214.704 371.65 206.189 359.619C195.287 344.211 206.765 322.952 225.606 323.693C240.292 324.27 251.687 310.921 248.767 296.46C245.064 277.921 264.194 263.212 281.101 271.535C294.307 278.044 310.104 270.464 313.354 256.085C317.509 237.669 340.957 231.983 353.011 246.485C362.432 257.815 379.956 257.321 388.719 245.497C400.032 230.418 423.769 234.826 428.911 252.995Z" fill="#4F3422"/>
<path d="M660.931 697.62C645.504 643.566 597.989 605.004 542 601.049C413.854 591.943 195.04 588.647 148.595 638.334C164.392 625.068 133.415 654.567 148.595 638.334C77.5495 697.95 66.4833 842.56 66.4833 842.56L232.435 841.406L694.623 842.725C697.173 829.541 678.044 757.689 660.931 697.62Z" fill="#9BB168"/>
<path d="M444.79 541.021L433.354 504.601C442.939 506.866 453.47 504.477 461.245 497.267C473.71 485.731 474.492 466.285 462.973 453.802C451.454 441.318 432.037 440.535 419.572 452.071C418.832 452.772 418.132 453.472 417.474 454.214L403.981 411.284C402.294 405.969 397.029 402.673 391.516 403.497C364.2 407.576 287.93 426.733 282.376 513.252C281.965 519.803 287.107 525.406 293.689 525.406L327.34 525.365L324.666 548.766C365.229 556.553 405.626 552.31 444.79 541.021Z" fill="#CFD9B5"/>
<path d="M444.79 541.021C405.667 552.351 365.229 556.553 324.707 548.766L316.727 618.682C312.695 653.907 333.182 687.938 366.71 699.351C368.273 699.886 369.877 700.38 371.482 700.875C429.569 717.767 482.761 661.859 464.577 604.056L444.79 541.021Z" fill="#9BB168"/>
<path d="M340.587 430.194C323.967 438.805 307.306 447.374 290.686 455.985C288.506 457.097 288.3 460.27 289.905 461.918C294.841 466.944 299.737 471.929 304.673 476.955C308.088 480.416 313.395 475.101 309.98 471.641C305.044 466.614 300.148 461.629 295.212 456.603C294.965 458.58 294.718 460.558 294.43 462.536C311.05 453.925 327.711 445.355 344.331 436.745C348.691 434.479 344.865 427.969 340.587 430.194Z" fill="#4F3422"/>
<path d="M335.856 488.533C336.309 492.405 331.784 495.949 328.246 493.765C324.091 491.252 320.306 497.761 324.461 500.274C332.483 505.177 344.495 498.173 343.426 488.533C343.179 486.514 341.862 484.783 339.641 484.783C337.79 484.742 335.651 486.473 335.856 488.533Z" fill="#4F3422"/>
<path d="M446.189 467.397C439.73 469.581 433.271 471.764 426.812 473.948C422.246 475.514 424.221 482.765 428.828 481.199C435.287 479.016 441.746 476.832 448.204 474.648C452.771 473.124 450.796 465.832 446.189 467.397Z" fill="#4F3422"/>
<path d="M355.273 452.73C362.473 469.004 384.934 473.165 398.139 461.877C401.842 458.704 396.494 453.389 392.833 456.562C382.959 465.008 366.915 460.476 361.814 448.94C359.84 444.49 353.34 448.322 355.273 452.73Z" fill="#4F3422"/>
<path d="M361.444 455.738C358.688 458.539 355.89 461.3 353.134 464.101C349.719 467.521 355.026 472.877 358.441 469.416C361.197 466.614 363.994 463.854 366.751 461.052C370.206 457.633 364.899 452.318 361.444 455.738Z" fill="#4F3422"/>
<path d="M373.333 466.614C373.374 469.416 373.415 472.176 373.456 474.978C373.498 479.839 381.067 479.839 380.985 474.978C380.944 472.176 380.902 469.416 380.861 466.614C380.779 461.794 373.251 461.753 373.333 466.614Z" fill="#4F3422"/>
<path d="M388.143 466.532C389.048 469.004 389.912 471.517 390.817 473.989C391.516 475.884 393.367 477.203 395.465 476.626C397.317 476.131 398.798 473.907 398.098 471.97C397.193 469.498 396.329 466.985 395.424 464.513C394.725 462.577 392.874 461.3 390.776 461.876C388.924 462.412 387.485 464.637 388.143 466.532Z" fill="#4F3422"/>
<path d="M414.06 743.311C414.06 750.52 408.218 756.412 400.978 756.412C393.779 756.412 387.896 750.562 387.896 743.311C387.896 736.101 393.738 730.209 400.978 730.209C408.218 730.209 414.06 736.059 414.06 743.311Z" fill="#4F3422"/>
<path d="M224.742 701.946C182.822 723.493 140.902 745.041 98.9409 766.588C89.3145 771.532 79.6882 776.476 70.0618 781.42C54.2648 789.577 41.4296 800.331 34.4773 817.222C28.3065 832.178 27.566 852.819 34.5595 867.733C41.7999 883.183 53.7711 897.355 70.2675 903.37C85.9412 909.056 105.276 911.198 120.703 903.288C146.99 889.775 173.319 876.261 199.606 862.707C237.412 843.26 275.218 823.855 313.024 804.409C291.385 766.341 269.911 728.149 249.63 689.174C241.32 693.459 233.01 697.702 224.742 701.946Z" fill="#9BB168"/>
<path d="M354.245 783.233C370.042 775.116 382.877 764.363 389.829 747.472C396 732.516 396.74 711.875 389.747 696.961C382.507 681.511 370.535 667.338 354.039 661.323C338.365 655.638 352.064 633.019 336.637 640.971C318.619 650.241 267.608 679.946 249.589 689.174C269.87 728.19 291.303 766.382 312.983 804.409C317.097 802.308 321.252 800.166 325.366 798.065C334.992 793.121 344.618 788.177 354.245 783.233Z" fill="#CFD9B5"/>
<path d="M361.321 691.11C366.298 657.698 371.276 624.244 376.254 590.831C377.694 581.108 370.7 570.396 360.58 569.283C350.501 568.171 340.628 574.557 339.065 584.98C334.087 618.393 329.109 651.847 324.132 685.26C322.692 694.983 329.685 705.695 339.805 706.807C349.884 707.961 359.757 701.534 361.321 691.11Z" fill="#CFD9B5"/>
<path d="M363.131 691.605C366.874 666.35 370.659 641.053 374.403 615.798C376.624 600.801 384.605 577.153 366.052 568.872C359.511 565.946 351.448 567.141 345.647 571.179C338.448 576.164 337.337 583.662 336.144 591.82C332.401 617.116 328.616 642.371 324.872 667.668C324.502 670.058 328.163 671.046 328.492 668.657C331.537 648.263 334.54 627.869 337.584 607.476C338.324 602.573 339.024 597.67 339.764 592.808C340.422 588.4 340.587 583.58 342.85 579.583C347.498 571.426 359.182 568.336 366.998 573.692C376.336 580.119 374.444 590.378 373.004 600.06C371.564 609.824 370.083 619.629 368.643 629.394C365.599 649.787 362.596 670.14 359.552 690.534C359.14 693.006 362.761 693.994 363.131 691.605Z" fill="#4F3422"/>
<path d="M370.33 754.517C378.845 700.01 387.361 645.461 395.876 590.954C397.399 581.231 390.487 570.478 380.326 569.284C370.247 568.089 360.333 574.433 358.688 584.857C350.172 639.364 341.656 693.912 333.141 748.419C331.619 758.142 338.53 768.895 348.691 770.09C358.77 771.285 368.684 764.94 370.33 754.517Z" fill="#CFD9B5"/>
<path d="M381.684 700.669C384.811 679.575 387.978 658.48 391.105 637.428C392.668 626.88 394.231 616.333 395.794 605.786C396.905 598.206 399.579 589.677 397.317 582.055C393.779 570.108 381.231 564.175 369.795 568.748C364.036 571.055 359.469 575.834 357.7 581.808C354.862 591.408 354.45 602.367 352.97 612.296C349.39 636.233 345.853 660.128 342.274 684.065C341.903 686.455 345.565 687.444 345.894 685.054C349.267 662.353 352.64 639.652 356.014 616.951C357.577 606.446 358.605 595.734 360.704 585.31C362.719 575.299 372.963 568.171 383.165 571.632C395.383 575.793 394.56 588.4 392.997 598.659C391.352 609.618 389.747 620.577 388.102 631.495C384.728 654.196 381.355 676.897 377.982 699.639C377.694 702.028 381.314 703.058 381.684 700.669Z" fill="#4F3422"/>
<path d="M372.428 604.592C366.38 645.214 360.333 685.837 354.286 726.46C352.846 736.183 359.839 746.895 369.959 748.007C380.038 749.119 389.911 742.734 391.475 732.31C397.522 691.687 403.569 651.065 409.617 610.442C411.056 600.719 404.063 590.007 393.943 588.895C383.864 587.782 373.991 594.168 372.428 604.592Z" fill="#CFD9B5"/>
<path d="M390.117 754.187C396.823 709.238 403.487 664.29 410.193 619.341C411.468 610.895 412.99 602.985 407.765 595.486C402.993 588.647 394.971 585.64 386.826 587.411C367.82 591.531 369.013 614.809 366.751 630.053C363.377 652.836 359.963 675.619 356.589 698.444C356.219 700.833 359.881 701.822 360.21 699.433C362.719 682.458 365.27 665.484 367.779 648.51C369.137 639.24 370.535 629.97 371.893 620.742C373.004 613.243 372.798 602.82 377.94 596.846C385.674 587.906 400.031 588.936 405.75 599.483C410.234 607.805 406.367 619.3 405.05 628.116C402.047 648.304 399.044 668.533 396.041 688.721C392.832 710.186 389.665 731.692 386.456 753.157C386.127 755.546 389.747 756.576 390.117 754.187Z" fill="#4F3422"/>
<path d="M554.176 703.882C596.096 725.43 638.016 746.977 679.977 768.525C689.603 773.468 699.23 778.412 708.856 783.356C724.653 791.473 737.488 802.226 744.441 819.118C750.611 834.073 751.352 854.714 744.358 869.628C737.118 885.078 725.147 899.292 708.65 905.266C692.977 910.951 673.642 913.094 658.215 905.183C631.928 891.67 605.599 878.156 579.312 864.602C541.506 845.156 503.7 825.751 465.894 806.304C487.533 768.236 509.007 730.044 529.288 691.069C537.598 695.354 545.908 699.639 554.176 703.882Z" fill="#9BB168"/>
<path d="M424.673 785.128C408.876 777.012 396.041 766.258 389.089 749.367C382.918 734.411 382.177 713.77 389.171 698.856C396.411 683.406 408.383 669.192 424.879 663.218C440.553 657.533 426.854 634.914 442.28 642.866C460.299 652.136 511.31 681.841 529.329 691.111C509.048 730.126 487.615 768.318 465.935 806.346C461.821 804.244 457.666 802.102 453.552 800.001C443.926 795.057 434.3 790.113 424.673 785.128Z" fill="#CFD9B5"/>
<path d="M417.598 693.047C412.62 659.634 407.642 626.18 402.665 592.767C401.225 583.044 408.218 572.332 418.338 571.22C428.417 570.108 438.29 576.494 439.854 586.917C444.831 620.33 449.809 653.784 454.787 687.197C456.227 696.92 449.233 707.632 439.113 708.744C429.034 709.856 419.161 703.47 417.598 693.047Z" fill="#CFD9B5"/>
<path d="M419.408 692.552C416.363 672.159 413.36 651.806 410.316 631.412C408.876 621.648 407.395 611.843 405.955 602.078C404.516 592.396 402.582 582.138 411.962 575.711C419.778 570.313 431.42 573.445 436.11 581.602C438.372 585.516 438.537 590.419 439.195 594.827C439.936 599.73 440.635 604.633 441.375 609.494C444.42 629.888 447.423 650.282 450.467 670.675C450.837 673.065 454.457 672.035 454.087 669.687C450.344 644.39 446.559 619.135 442.815 593.838C441.581 585.681 440.512 578.183 433.312 573.197C427.512 569.16 419.449 567.965 412.908 570.89C394.313 579.171 402.335 602.779 404.557 617.816C408.3 643.072 412.085 668.368 415.829 693.624C416.117 695.931 419.778 694.901 419.408 692.552Z" fill="#4F3422"/>
<path d="M408.588 756.453C400.073 701.946 391.557 647.398 383.041 592.891C381.519 583.168 388.43 572.415 398.592 571.22C408.67 570.025 418.585 576.37 420.23 586.793C428.746 641.3 437.261 695.848 445.777 750.355C447.299 760.079 440.388 770.832 430.227 772.026C420.148 773.221 410.234 766.876 408.588 756.453Z" fill="#CFD9B5"/>
<path d="M400.854 701.575C397.481 678.874 394.108 656.173 390.734 633.431C389.171 622.884 387.608 612.337 386.044 601.79C384.481 591.243 382.959 577.894 395.712 573.568C405.297 570.314 415.87 576.7 418.009 586.381C420.313 597.011 421.3 608.094 422.863 618.847C426.237 641.548 429.61 664.249 432.983 686.949C433.353 689.339 436.974 688.309 436.603 685.961C433.477 664.867 430.309 643.772 427.183 622.719C425.619 612.172 424.056 601.625 422.493 591.078C421.464 584.28 420.148 578.389 414.594 573.857C404.886 565.905 390.158 568.048 383.7 578.966C379.833 585.516 380.738 591.943 381.807 599.112C383.37 609.659 384.934 620.206 386.497 630.753C390.076 654.69 393.614 678.586 397.193 702.523C397.563 704.995 401.224 703.965 400.854 701.575Z" fill="#4F3422"/>
<path d="M406.49 606.528C412.538 647.151 418.585 687.773 424.632 728.396C426.072 738.119 419.079 748.831 408.959 749.944C398.88 751.056 389.007 744.67 387.443 734.247C381.396 693.624 375.349 653.001 369.301 612.378C367.861 602.655 374.855 591.943 384.975 590.831C395.054 589.719 404.927 596.105 406.49 606.528Z" fill="#CFD9B5"/>
<path d="M392.421 755.094C386.579 715.913 380.738 676.691 374.937 637.51C373.621 628.57 371.029 618.929 371.029 609.906C370.988 597.835 382.671 589.513 393.984 593.839C403.94 597.67 404.721 607.064 406.079 616.251C407.395 625.15 408.712 634.049 410.069 642.948C412.949 662.395 415.87 681.841 418.749 701.328C419.12 703.718 422.74 702.688 422.37 700.339C419.367 680.275 416.405 660.211 413.401 640.106C411.962 630.341 410.481 620.577 409.041 610.813C407.766 602.367 405.297 595.075 397.152 591.078C380.491 582.921 365.393 597.629 367.738 614.48C370.823 636.48 374.279 658.398 377.529 680.358C381.273 705.613 385.057 730.827 388.801 756.082C389.13 758.513 392.791 757.483 392.421 755.094Z" fill="#4F3422"/>
<path d="M81.5809 777.671C129.877 751.88 178.215 726.089 226.511 700.298C233.34 696.631 240.169 693.006 246.998 689.339C249.137 688.185 247.245 684.931 245.105 686.084C196.809 711.875 148.472 737.666 100.175 763.457C93.3465 767.124 86.5175 770.749 79.6886 774.416C77.5083 775.57 79.4418 778.824 81.5809 777.671Z" fill="#4F3422"/>
<path d="M672.573 762.633C630.982 741.003 589.432 719.332 547.841 697.703C542.041 694.695 536.24 691.646 530.399 688.639C528.26 687.526 526.326 690.781 528.506 691.893C570.097 713.523 611.647 735.194 653.238 756.824C659.038 759.831 664.839 762.88 670.68 765.888C672.819 767 674.712 763.745 672.573 762.633Z" fill="#4F3422"/>
<path d="M109.802 740.674C118.688 743.104 127.574 745.494 136.501 747.925C138.845 748.543 139.833 744.917 137.488 744.299C128.602 741.868 119.716 739.479 110.789 737.048C108.444 736.389 107.457 740.014 109.802 740.674Z" fill="#4F3422"/>
<path d="M634.766 744.629C641.883 742.404 648.836 739.726 655.623 736.595C657.804 735.606 655.911 732.351 653.731 733.34C647.231 736.307 640.567 738.861 633.779 741.003C631.475 741.704 632.463 745.37 634.766 744.629Z" fill="#4F3422"/>
<path d="M553.724 394.186C560.636 409.223 579.641 408.399 591.201 399.665C603.584 390.272 616.049 370.125 610.619 354.098C606.587 342.192 588.404 334.982 581.534 348.743C578.572 354.634 580.917 361.679 585.483 366.088C591.325 371.691 600.252 372.638 607.945 372.885C626.169 373.503 647.478 365.305 650.276 344.911C650.934 340.173 643.694 338.113 643.035 342.892C640.979 357.683 626.992 364.687 613.293 365.305C606.793 365.593 598.73 365.634 592.929 362.215C589.761 360.361 587.129 356.941 588.034 353.192C588.939 349.319 593.423 348.042 596.878 349.155C603.954 351.462 604.983 360.361 603.79 366.541C602.35 373.957 598.195 381.29 593.423 387.058C585.648 396.41 567.341 405.804 560.265 390.313C558.167 385.987 551.709 389.818 553.724 394.186Z" fill="#4F3422"/>
<path d="M147.978 293.741C146.621 311.54 161.43 326.948 179.367 325.177C196.891 323.405 208.822 306.142 204.337 289.045C202.692 282.823 197.467 275.49 190.309 279.528C183.151 283.565 181.629 294.318 182.616 301.61C185.373 321.798 204.132 332.139 221.903 337.413C226.552 338.814 228.527 331.521 223.919 330.162C212.812 326.866 200.923 322.004 194.341 311.91C191.05 306.843 189.075 300.374 190.063 294.277C190.268 293.082 190.556 291.846 191.009 290.734C191.502 289.374 193.6 286.119 195.575 287.067C197.385 287.932 197.755 294.936 197.755 296.255C197.838 308.45 187.964 318.131 175.788 317.802C163.076 317.472 154.601 305.936 155.506 293.741C155.877 288.921 148.348 288.921 147.978 293.741Z" fill="#4F3422"/>
<path d="M154.519 580.572C164.104 589.636 179.325 591.325 190.556 584.157C196.686 580.243 200.388 574.063 202.939 567.43C205.489 560.632 208.616 551.485 204.543 544.605C201.705 539.785 195.04 536.654 189.857 539.62C184.591 542.628 183.851 549.425 185.496 554.699C189.528 567.759 204.667 574.269 217.378 573.61C235.438 572.662 249.096 558.984 258.846 544.976C261.602 540.98 255.102 537.23 252.346 541.186C245.229 551.403 236.014 561.456 223.672 564.999C213.635 567.883 200.47 565.37 194.464 556.1C193.354 554.369 191.585 551.238 192.202 549.055C194.012 542.586 197.796 548.025 198.496 550.291C199.154 552.433 198.825 554.411 198.372 556.553C197.138 562.733 194.67 569.86 190.309 574.557C182.37 583.085 168.095 583.044 159.826 575.175C156.329 571.879 150.981 577.235 154.519 580.572Z" fill="#4F3422"/>
<path d="M468.609 285.254C461.78 274.378 462.726 259.257 472.558 250.399C481.033 242.777 501.314 239.234 508.143 251.141C510.447 255.179 508.76 260.658 503.248 259.463C498.969 258.516 497.036 254.107 496.707 250.111C496.172 243.849 498.558 237.339 501.725 232.066C508.143 221.436 519.456 214.144 531.798 212.949C536.57 212.496 536.611 204.956 531.798 205.41C516.7 206.81 503.083 215.174 495.226 228.234C488.644 239.152 484.159 260.617 499.833 266.261C505.346 268.239 511.969 266.962 515.178 261.729C519.209 255.22 516.165 247.268 510.735 242.654C499.175 232.931 480.786 234.496 469.309 243.354C455.445 254.066 452.977 274.501 462.109 289.045C464.701 293.164 471.201 289.374 468.609 285.254Z" fill="#4F3422"/>
</svg>
