<svg width="1015" height="786" viewBox="0 0 1015 786" fill="none" xmlns="http://www.w3.org/2000/svg">
<path d="M548.279 0C523.989 3.73406 499.551 7.13539 474.707 9.46456C404.832 16.2302 339.393 35.3812 275.138 65.8083C182.526 109.545 96.3463 163.375 0 195.798V398.177C101.226 347.527 175.982 261.976 262.715 187.517C419.472 52.2769 625.807 68.0635 817.501 20.7407C839.425 15.1211 860.425 8.02269 880.833 0L548.279 0Z" fill="#FFF4E0"/>
<path d="M788.22 133.428C686.735 178.496 585.25 213.433 480.363 248.371C387.899 279.907 313.477 337.397 233.434 399.36C161.748 453.892 90.0242 513.526 0 521.364V676.568H48.4319C76.6407 631.39 124.296 601.258 173.652 581.923C218.757 565.027 262.715 549.24 305.565 524.47C316.841 518.85 325.862 509.829 337.138 501.918C393.519 465.871 443.134 435.444 499.514 399.36C532.234 379.063 561.552 361.058 596.489 352.037C703.631 322.756 789.292 265.267 884.049 211.178C925.382 187.665 969.637 175.316 1014.85 170.806V95.8287C937.25 93.3147 860.203 100.931 788.22 133.428Z" fill="#FFF4E0"/>
<path d="M806.262 506.428C738.605 544.73 661.928 543.62 590.907 568.391C557.078 580.776 514.007 588.984 471.084 621.888C450.824 637.416 439.252 658.045 422.43 676.568H1014.85V417.476C1006.27 418.141 997.624 419.213 988.899 420.766C919.024 432.042 866.007 473.745 806.262 506.428Z" fill="#FFF4E0"/>
<path d="M663.943 524.842C674.376 536.329 690.51 526.54 695.524 514.972C699.487 505.872 700.215 495.396 701.59 485.688C703.167 474.768 704.582 463.847 705.876 452.926C710.607 412.681 716.106 370.615 706.685 330.613C704.622 321.957 695.929 284.503 680.28 294.089C678.258 295.343 680.118 298.538 682.14 297.284C696.454 288.547 705.997 345.902 706.806 353.708C708.909 374.215 707.979 394.924 706.199 415.431C704.218 437.799 701.59 460.126 698.436 482.331C697.061 492.079 696.373 502.515 692.896 511.777C689.257 521.525 676.115 532.729 666.612 522.253C664.954 520.473 662.366 523.062 663.943 524.842Z" fill="#FFCE5C"/>
<path d="M259.782 423.116C250.603 404.591 252.382 383.639 257.639 364.225C262.734 345.417 270.498 326.932 279.96 309.904C298.439 276.696 328.362 247.453 367.545 242.478C369.89 242.195 369.89 238.473 367.545 238.797C326.987 243.974 295.973 273.582 276.766 308.084C266.495 326.528 258.003 346.873 253.029 367.38C248.339 386.633 247.611 406.897 256.628 425.017C257.639 427.12 260.834 425.219 259.782 423.116Z" fill="#FFCE5C"/>
<path d="M994.955 454.948C979.509 453.897 963.294 452.562 951.486 453.937C925.971 456.89 902.113 467.932 877.326 474.606C851.851 481.442 825.406 483.707 799.122 485.891C779.955 487.509 760.788 489.127 741.581 489.127C723.991 489.167 706.402 487.913 688.893 486.336C661.113 483.868 632.807 481.239 604.421 477.72C540.249 469.793 475.874 457.416 417.282 432.662C403.048 426.635 388.976 420.204 375.107 413.368C309.761 381.172 248.702 340.078 194.113 291.5C173.572 273.218 153.96 253.924 135.359 233.62L135.279 233.539C131.558 229.454 136.006 223.144 141.02 225.369L168.315 237.462C172.642 239.363 177.818 238.757 181.295 235.521C185.5 231.597 184.045 226.703 182.387 222.416C176.968 208.34 169.447 195.114 164.393 180.917C161.562 172.908 159.419 160.329 159.055 148.316C158.853 141.561 167.992 139.579 170.499 145.808C175.23 157.538 188.008 179.258 199.734 194.386C201.675 196.893 205.476 194.305 203.939 191.514C193.952 173.636 182.791 150.419 181.982 137.476C181.74 133.472 184.57 129.791 188.533 129.427C193.588 128.942 195.771 134.523 197.227 139.013C202.605 155.394 211.218 171.048 224.885 181.281C218.577 171.533 211.744 157.862 208.307 146.658C206.366 140.348 214.615 136.06 218.456 141.359C222.5 146.941 226.341 155.273 229.091 160.086C244.78 187.429 265.524 211.778 289.948 231.436C304.99 243.57 321.367 253.884 337.662 264.198C368.151 283.411 403.452 301.248 439.36 314.798C459.821 322.442 480.443 328.752 500.459 333.161C528.279 339.269 556.666 343.152 585.295 345.659C629.006 349.502 673.203 350.189 716.632 350.796C777.327 351.646 839.761 351.767 896.412 329.602C908.219 324.991 931.632 316.78 952.699 311.724C958.967 310.227 961.959 319.288 956.056 321.917C939.598 329.319 920.674 337.287 905.065 342.868C902.801 343.677 901.022 345.578 900.617 347.965C899.687 353.506 908.341 352.374 913.88 350.958L981.773 333.646C988.93 331.826 993.661 340.927 988.162 345.902C985.008 348.733 981.086 351.12 977.406 352.778C963.375 359.088 941.296 366.409 922.17 373.366C915.983 375.631 918.409 385.055 924.879 383.882C943.763 380.525 971.3 372.436 994.389 366.126C1001.59 364.144 1005.83 374.013 999.565 378.098C983.471 388.493 966.569 396.906 948.898 404.106C927.75 412.762 931.955 430.356 946.836 432.905C955.287 434.361 963.213 435.129 968.429 435.17C975.991 435.25 987.636 437.475 997.826 441.479C1005.19 444.432 1002.72 455.474 994.955 454.948Z" fill="#F6A460"/>
<path d="M450.197 366.652C458.608 392.538 484.81 399.94 504.746 391.325C525.489 382.831 541.664 363.295 553.39 342.262C533.455 339.795 511.903 338.217 492.453 333.161C478.381 329.521 463.986 324.546 449.59 318.6C445.223 334.172 446.072 351.16 450.197 366.652Z" fill="#F6A460"/>
<path d="M606.928 485.608C606.079 483.019 605.23 480.39 604.381 477.72C597.021 454.625 590.066 429.952 588.368 406.088C586.548 380.525 585.618 360.787 585.254 345.659C580.119 345.214 558.445 342.788 553.35 342.221C539.602 363.254 531.959 380.04 507.576 388.493C484.163 397.109 460.629 392.498 450.763 366.611C445.911 351.12 444.9 334.132 450.076 318.6C446.477 317.346 442.918 316.052 439.32 314.717C418.373 332.15 402.037 355.124 389.906 379.312C384.326 390.394 379.393 401.76 375.066 413.368C356.627 462.512 348.54 515.579 346.437 567.676C343.526 640.036 346.761 714.176 359.539 785.485L807.493 768.255C721.646 687.117 644.13 600.034 606.928 485.608Z" fill="#FFCE5C"/>
<path d="M509.719 277.91C501.187 269.739 501.753 254.369 510.851 246.684C515.825 242.478 522.618 240.536 527.107 235.885C537.499 225.126 530.382 207.976 530.584 193.294C530.746 179.056 540.087 166.558 551.813 157.862C573.123 141.966 587.155 150.743 604.219 144.716C644.938 130.357 638.105 107.666 654.401 90.5974C670.696 73.569 695.686 67.1783 719.544 67.1379C737.255 67.1379 753.874 76.5217 771.585 75.9959C792.248 75.3892 793.906 52.1319 833.372 49.8668C860.828 48.3298 887.435 63.1336 900.213 86.7145C913.031 110.295 906.4 149.327 884.039 165.061C867.743 176.508 834.706 181.321 814.852 178.894C794.068 176.346 781.937 160.612 764.711 172.261C744.938 185.609 744.452 215.701 725.488 230.06C710.647 241.305 689.782 239.161 671.141 236.977C652.54 234.793 631.19 233.943 617.684 246.684C608.505 255.38 604.098 269.537 592.088 273.825C575.267 279.811 555.534 261.852 540.006 270.589C535.841 272.935 532.889 276.899 529.007 279.689C525.125 282.48 519.262 283.855 515.744 280.701L509.719 277.91Z" fill="#4F3422"/>
<path d="M513.156 252.994C524.034 244.581 526.217 230.627 525.206 217.603C523.791 199.078 518.211 179.582 532.93 164.657C555.938 141.359 593.624 147.831 618.978 128.578C632.888 118.021 637.296 100.507 648.941 88.0088C660.911 75.1465 677.692 66.9761 695.241 65.7222C724.396 63.6594 765.075 80.3642 786.991 52.1723C793.784 43.3952 797.545 23.2523 782.26 20.7041C777.529 19.9356 771.787 21.8367 769.846 26.569C767.865 31.4227 773.162 34.5776 777.448 33.2024C779.713 32.4744 778.742 28.915 776.478 29.643C775.507 28.8745 774.577 28.0656 773.607 27.2971C774.618 25.8814 775.952 24.9916 777.61 24.5467C779.389 23.9804 781.532 24.0613 783.271 24.7084C787.638 26.3263 789.417 31.2205 789.458 35.5079C789.539 42.748 785.333 49.5028 780.036 54.1542C769.523 63.3358 754.561 65.6413 741.096 65.1155C724.436 64.4683 707.857 60.3427 691.157 62.4055C678.905 63.9425 667.097 68.6749 657.11 75.915C646.475 83.6404 639.358 93.5501 632.969 104.916C629.128 111.711 625.205 118.466 619.261 123.603C613.398 128.658 606.402 132.137 599.164 134.726C575.792 143.139 547.082 143.624 529.209 163.201C519.019 174.405 518.089 188.44 519.788 202.88C521.567 218.29 525.651 238.757 511.337 249.758C509.436 251.214 511.256 254.41 513.156 252.994Z" fill="#4F3422"/>
<path d="M568.635 266.139C580.806 272.126 595.242 271.317 606.281 263.187C612.266 258.778 616.916 252.509 623.467 248.828C632.646 243.691 643.159 245.39 652.904 247.898C668.311 251.821 682.948 256.109 699.042 254.046C712.669 252.306 724.719 246.32 733.939 236.047C743.643 225.207 750.275 211.333 762.285 202.718C776.842 192.282 795.968 193.294 812.668 196.732C841.904 202.677 877.771 217.886 902.397 192.525C909.028 185.689 919.582 166.396 907.047 160.41C902.963 158.468 897.544 158.671 894.795 162.675C892.207 166.477 893.096 171.695 897.099 173.96C899.162 175.133 901.022 171.937 898.96 170.764C893.379 167.609 899.809 162.068 904.054 163.201C906.602 163.888 908.179 165.547 908.705 168.378C909.23 171.371 908.381 174.971 907.411 177.762C905.187 184.436 900.375 190.098 894.795 194.264C883.351 202.799 869.32 204.214 855.49 202.516C828.762 199.199 802.155 185.245 774.82 192.768C750.76 199.401 743.482 223.265 726.337 238.433C715.945 247.615 702.196 251.093 688.569 250.931C674.659 250.729 662.164 245.835 648.699 243.084C635.234 240.334 624.073 242.316 613.802 251.578C608.101 256.675 603.006 262.176 595.566 264.724C587.276 267.555 578.34 266.787 570.535 262.944C568.352 261.893 566.492 265.088 568.635 266.139Z" fill="#4F3422"/>
<path d="M374.5 431.004C360.307 416.443 336.652 418.344 316.757 422.631C296.862 426.918 274.825 432.257 257.275 421.984C256.062 417.171 260.389 412.6 264.958 410.658C269.568 408.717 274.744 408.232 278.989 405.603C292.859 396.947 286.834 373.649 298.075 361.757C307.133 352.212 324.723 353.102 331.314 341.696C339.118 328.186 325.006 307.558 336.207 296.718C339.078 293.927 343.041 292.633 346.599 290.893C365.402 281.793 375.107 257.443 367.788 237.867C376.36 237.584 384.124 243.408 389.017 250.446C393.91 257.484 396.619 265.776 400.137 273.582C407.496 289.801 425.409 303.634 439.32 314.758C441.139 316.214 436.408 318.357 437.217 320.541C437.985 322.645 437.581 324.95 437.136 327.134C432.728 349.866 428.24 372.759 419.506 394.196C410.772 415.634 397.306 435.736 378.139 448.76L374.5 431.004Z" fill="#FFCE5C"/>
<path d="M576.035 353.83C603.37 323.251 641.865 301.774 683.474 293.887C669.24 305.455 653.713 320.056 655.896 337.651C656.543 342.788 658.727 347.844 658.12 353.021C656.301 368.593 630.907 376.116 632.565 391.689C633.656 402.043 646.96 409.081 646.232 419.476C645.504 429.669 631.311 436.707 633.292 446.738C634.546 453.088 641.825 456.647 645.342 462.189C650.518 470.319 646.798 480.673 647.526 490.097C648.496 503.121 660.668 522.738 674.093 525.812C634.101 527.026 592.735 497.985 573.325 465.06C553.875 432.136 555.736 389.019 577.935 357.672L576.035 353.83Z" fill="#FFCE5C"/>
<path d="M613.803 503.364C585.861 485.163 558.526 465.101 551.248 430.518C544.374 397.918 558.041 364.184 584.931 344.77C586.347 343.718 584.972 341.332 583.516 342.383C556.747 361.717 542.473 394.52 547.811 427.282C553.876 464.575 582.627 486.417 612.388 505.751C613.924 506.721 615.299 504.335 613.803 503.364Z" fill="#4F3422"/>
<path d="M370.78 431.732C385.741 389.424 408.224 348.491 439.158 315.728C440.371 314.434 438.43 312.452 437.176 313.787C405.919 346.954 383.234 388.251 368.111 431.004C367.504 432.662 370.173 433.39 370.78 431.732Z" fill="#4F3422"/>
<path d="M349.874 405.36C352.867 405.198 355.535 406.007 358.002 407.706C359.458 408.717 360.873 406.33 359.417 405.319C356.627 403.378 353.311 402.407 349.915 402.609C348.095 402.65 348.095 405.441 349.874 405.36Z" fill="#4F3422"/>
<path d="M357.84 384.691C360.954 387.725 364.27 390.475 367.788 392.983C369.243 394.035 370.618 391.608 369.203 390.597C365.847 388.21 362.733 385.581 359.822 382.709C358.487 381.496 356.546 383.437 357.84 384.691Z" fill="#4F3422"/>
<path d="M398.924 327.66C403.048 329.48 407.213 331.26 411.338 333.08C412.955 333.768 414.37 331.381 412.753 330.694C408.628 328.874 404.464 327.094 400.339 325.274C398.722 324.586 397.306 326.973 398.924 327.66Z" fill="#4F3422"/>
<path d="M410.812 319.53C411.985 323.13 414.371 326.123 417.686 327.943C419.263 328.792 420.638 326.406 419.102 325.557C416.433 324.06 414.451 321.714 413.481 318.802C412.955 317.103 410.286 317.831 410.812 319.53Z" fill="#4F3422"/>
<path d="M416.998 305.738C418.737 310.146 421.527 313.746 425.328 316.537C426.784 317.589 428.159 315.202 426.744 314.151C423.59 311.805 421.123 308.65 419.708 305.01C419.02 303.351 416.311 304.079 416.998 305.738Z" fill="#4F3422"/>
<path d="M573.245 365.317C577.005 364.386 580.766 363.456 584.527 362.526C586.265 362.081 585.537 359.411 583.799 359.856C580.038 360.787 576.278 361.717 572.517 362.647C570.778 363.052 571.506 365.721 573.245 365.317Z" fill="#4F3422"/>
<path d="M567.786 380.242C571.951 379.716 575.994 380.04 580.038 381.293C581.736 381.819 582.464 379.15 580.766 378.624C576.52 377.289 572.193 376.925 567.786 377.451C566.047 377.694 566.007 380.485 567.786 380.242Z" fill="#4F3422"/>
<path d="M559.092 440.347C561.963 443.34 564.834 446.333 567.705 449.367C568.958 450.661 570.899 448.679 569.686 447.425C566.815 444.432 563.944 441.439 561.073 438.405C559.82 437.071 557.879 439.053 559.092 440.347Z" fill="#4F3422"/>
<path d="M559.82 433.309C563.621 433.997 567.422 434.684 571.223 435.412C572.962 435.736 573.73 433.066 571.951 432.743C568.15 432.055 564.349 431.368 560.548 430.64C558.809 430.316 558.041 432.986 559.82 433.309Z" fill="#4F3422"/>
<path d="M558.324 421.458C561.68 423.278 565.279 424.249 569.039 424.33C570.818 424.37 570.818 421.62 569.039 421.539C565.723 421.458 562.61 420.609 559.698 419.031C558.121 418.222 556.747 420.609 558.324 421.458Z" fill="#4F3422"/>
<path d="M135.238 227.35C138.999 229.777 140.535 234.348 139.241 238.595C138.715 240.294 141.384 241.022 141.91 239.323C143.608 233.863 141.384 228.038 136.653 224.924C135.157 223.953 133.742 226.38 135.238 227.35Z" fill="#4F3422"/>
<path d="M164.069 144.19C161.077 150.5 165.323 158.145 172.237 159.035C174.016 159.277 173.976 156.486 172.237 156.244C167.506 155.637 164.433 149.853 166.495 145.566C167.264 143.988 164.837 142.613 164.069 144.19Z" fill="#4F3422"/>
<path d="M188.776 134.24C187.159 138.973 189.908 144.231 194.639 145.768C196.338 146.334 197.065 143.664 195.367 143.098C192.011 142.006 190.313 138.245 191.445 134.968C192.011 133.31 189.342 132.582 188.776 134.24Z" fill="#4F3422"/>
<path d="M210.207 141.157C211.623 145.97 214.938 149.934 219.427 152.199C221.004 153.008 222.419 150.621 220.842 149.813C216.96 147.871 214.13 144.595 212.917 140.429C212.35 138.689 209.682 139.418 210.207 141.157Z" fill="#4F3422"/>
<path d="M205.436 224.155C208.792 222.861 212.148 221.607 215.504 220.313C217.162 219.665 216.434 216.996 214.777 217.643C211.42 218.937 208.064 220.191 204.708 221.486C203.05 222.092 203.778 224.802 205.436 224.155Z" fill="#FFCE5C"/>
<path d="M230.709 214.205C234.024 212.87 237.381 211.536 240.696 210.201C242.314 209.554 241.626 206.844 239.969 207.531C236.653 208.866 233.297 210.201 229.981 211.536C228.323 212.183 229.051 214.852 230.709 214.205Z" fill="#FFCE5C"/>
<path d="M253.272 207.733C255.375 206.924 257.477 206.075 259.58 205.266C261.238 204.619 260.51 201.949 258.852 202.597C256.749 203.406 254.647 204.255 252.544 205.064C250.886 205.671 251.614 208.381 253.272 207.733Z" fill="#FFCE5C"/>
<path d="M889.093 405.562C890.306 409.768 891.559 413.975 892.773 418.182C893.258 419.88 895.967 419.152 895.441 417.453C894.228 413.247 892.975 409.04 891.762 404.834C891.236 403.095 888.567 403.823 889.093 405.562Z" fill="#FFCE5C"/>
<path d="M878.863 374.134C879.712 377.087 880.561 379.999 881.37 382.952C881.855 384.651 884.524 383.923 884.039 382.224C883.19 379.271 882.341 376.359 881.532 373.406C881.047 371.667 878.378 372.395 878.863 374.134Z" fill="#FFCE5C"/>
<path d="M867.783 342.909C869.4 346.711 871.018 350.513 872.635 354.315C873.323 355.933 875.708 354.558 875.021 352.899C873.403 349.097 871.786 345.295 870.168 341.493C869.481 339.875 867.095 341.291 867.783 342.909Z" fill="#FFCE5C"/>
<path d="M545.829 194.224C548.74 179.137 559.779 167.043 574.619 162.958C576.924 162.311 575.954 158.752 573.649 159.399C557.636 163.807 545.424 176.912 542.27 193.253C541.826 195.599 545.384 196.57 545.829 194.224Z" fill="#251404"/>
<path d="M627.794 153.493C636.326 148.154 645.141 142.491 650.195 133.472C653.026 128.456 654.926 122.996 658.121 118.183C661.679 112.843 666.087 108.313 671.06 104.309C672.921 102.813 670.292 100.224 668.432 101.68C660.183 108.273 654.118 116.362 649.71 125.948C644.494 137.355 636.326 143.786 625.893 150.298C623.912 151.552 625.772 154.747 627.794 153.493Z" fill="#251404"/>
<path d="M693.988 92.4178C709.152 80.688 728.763 86.6742 745.1 92.1346C747.364 92.9031 748.335 89.3033 746.07 88.5753C728.116 82.6295 707.736 77.1286 691.36 89.8291C689.459 91.2448 692.128 93.8334 693.988 92.4178Z" fill="#251404"/>
<path d="M813.153 78.9082C822.171 70.212 834.908 67.2998 846.837 71.1827C849.101 71.9108 850.072 68.3514 847.807 67.6234C834.625 63.3764 820.472 66.7335 810.525 76.3196C808.786 77.9375 811.415 80.5666 813.153 78.9082Z" fill="#FFCE5C"/>
<path d="M515.501 347.156L532.485 235.804C532.485 235.804 477.41 247.291 467.706 288.547L490.633 290.651L466.573 329.359C457.758 343.556 464.43 362.324 480.241 367.744C480.524 367.824 480.767 367.946 481.05 368.027C496.537 373.244 513.035 363.294 515.501 347.156Z" fill="#F6A460"/>
<path d="M541.421 286.404C535.72 289.64 528.481 287.617 525.247 281.914C522.012 276.211 524.034 268.971 529.735 265.735C535.437 262.499 542.675 264.522 545.91 270.225C549.104 275.928 547.123 283.168 541.421 286.404Z" fill="#F6A460"/>
<path d="M530.423 278.193C534.709 277.384 538.995 276.615 543.281 275.887C545.02 275.604 544.292 272.935 542.553 273.218C538.267 273.946 533.981 274.714 529.695 275.523C527.956 275.847 528.684 278.516 530.423 278.193Z" fill="#4F3422"/>
<path d="M490.593 290.651L467.948 327.175L507.616 291.015L490.593 290.651Z" fill="#4F3422"/>
<path d="M483.638 267.272C483.638 267.272 498.478 271.155 510.973 272.126C510.973 272.126 487.681 284.867 475.105 280.215L483.638 267.272Z" fill="white"/>
<path d="M505.433 245.066C498.114 247.614 490.673 250.81 484.001 254.733C483.152 255.219 483.031 256.675 484.001 257.12C486.751 258.454 489.46 259.749 492.21 261.083C493.828 261.852 495.202 259.466 493.625 258.697C490.876 257.362 488.166 256.068 485.417 254.733C485.417 255.542 485.417 256.311 485.417 257.12C491.887 253.318 499.084 250.244 506.161 247.736C507.859 247.17 507.131 244.5 505.433 245.066Z" fill="#4F3422"/>
<path d="M510.286 260.881C513.48 258.738 519.262 261.569 520.839 264.643C521.648 266.221 524.034 264.845 523.225 263.227C520.961 258.859 513.278 255.461 508.87 258.455C507.415 259.466 508.83 261.893 510.286 260.881Z" fill="#4F3422"/>
</svg>
