<svg width="22" height="22" viewBox="0 0 22 22" fill="none" xmlns="http://www.w3.org/2000/svg">
<path fill-rule="evenodd" clip-rule="evenodd" d="M11 22C17.075 22 22 17.075 22 11C22 4.925 17.075 0 11 0C4.925 0 0 4.925 0 11C0 17.075 4.925 22 11 22ZM6.5 7V9.5H8.5V7H6.5ZM13.5 7V9.5H15.5V7H13.5ZM8.5 12C8.5 12.663 8.76339 13.2989 9.23223 13.7678C9.70107 14.2366 10.337 14.5 11 14.5C11.663 14.5 12.2989 14.2366 12.7678 13.7678C13.2366 13.2989 13.5 12.663 13.5 12H15.5C15.5 13.1935 15.0259 14.3381 14.182 15.182C13.3381 16.0259 12.1935 16.5 11 16.5C9.80653 16.5 8.66193 16.0259 7.81802 15.182C6.97411 14.3381 6.5 13.1935 6.5 12H8.5Z" fill="#9BB167"/>
</svg>
