<svg width="18" height="18" viewBox="0 0 18 18" fill="none" xmlns="http://www.w3.org/2000/svg">
<path d="M9 0C7.21997 0 5.47991 0.527841 3.99987 1.51677C2.51983 2.50571 1.36628 3.91131 0.685088 5.55585C0.00389957 7.20038 -0.17433 9.00998 0.172937 10.7558C0.520204 12.5016 1.37737 14.1053 2.63604 15.364C3.89472 16.6226 5.49836 17.4798 7.24419 17.8271C8.99002 18.1743 10.7996 17.9961 12.4442 17.3149C14.0887 16.6337 15.4943 15.4802 16.4832 14.0001C17.4722 12.5201 18 10.78 18 9C18 6.61305 17.0518 4.32387 15.364 2.63604C13.6761 0.948212 11.387 0 9 0ZM5.625 5.25C6.11152 5.26048 6.58311 5.42 6.97609 5.70702C7.36906 5.99404 7.6645 6.39473 7.8225 6.855C7.89354 7.04003 7.88846 7.24566 7.80835 7.42694C7.72825 7.60823 7.57964 7.75044 7.395 7.8225C7.30956 7.85835 7.21765 7.87622 7.125 7.875C6.97392 7.87455 6.8265 7.82849 6.70204 7.74284C6.57758 7.65719 6.48189 7.53595 6.4275 7.395C6.3739 7.21938 6.2687 7.06395 6.12558 6.94892C5.98246 6.83389 5.80804 6.76458 5.625 6.75C5.44197 6.76458 5.26755 6.83389 5.12443 6.94892C4.98131 7.06395 4.87611 7.21938 4.8225 7.395C4.7925 7.49372 4.74244 7.58518 4.67547 7.66367C4.6085 7.74216 4.52606 7.80599 4.43329 7.85117C4.34053 7.89634 4.23945 7.92189 4.13636 7.92621C4.03327 7.93054 3.9304 7.91354 3.83418 7.8763C3.73796 7.83905 3.65046 7.78235 3.57715 7.70975C3.50384 7.63714 3.4463 7.55019 3.40813 7.45433C3.36996 7.35847 3.35198 7.25577 3.35532 7.15265C3.35865 7.04952 3.38322 6.94819 3.4275 6.855C3.58551 6.39473 3.88095 5.99404 4.27392 5.70702C4.6669 5.42 5.13848 5.26048 5.625 5.25ZM6 11.25C6.19892 11.25 6.38968 11.329 6.53033 11.4697C6.67099 11.6103 6.75 11.8011 6.75 12C6.75 12.135 7.035 12.375 7.5 12.375C7.965 12.375 8.25 12.135 8.25 12C8.25 11.8011 8.32902 11.6103 8.46967 11.4697C8.61033 11.329 8.80109 11.25 9 11.25C9.19892 11.25 9.38968 11.329 9.53033 11.4697C9.67099 11.6103 9.75 11.8011 9.75 12C9.75 12.135 10.035 12.375 10.5 12.375C10.965 12.375 11.25 12.135 11.25 12C11.25 11.8011 11.329 11.6103 11.4697 11.4697C11.6103 11.329 11.8011 11.25 12 11.25C12.1989 11.25 12.3897 11.329 12.5303 11.4697C12.671 11.6103 12.75 11.8011 12.75 12C12.7255 12.2709 12.6479 12.5343 12.5215 12.7752C12.3951 13.0161 12.2226 13.2297 12.0136 13.4038C11.8046 13.5779 11.5634 13.7092 11.3037 13.79C11.044 13.8709 10.7709 13.8998 10.5 13.875C9.96316 13.8843 9.43748 13.7213 9 13.41C8.56253 13.7213 8.03685 13.8843 7.5 13.875C7.22913 13.8998 6.95603 13.8709 6.69632 13.79C6.4366 13.7092 6.19537 13.5779 5.98641 13.4038C5.77745 13.2297 5.60486 13.0161 5.4785 12.7752C5.35214 12.5343 5.2745 12.2709 5.25 12C5.25 11.8011 5.32902 11.6103 5.46967 11.4697C5.61033 11.329 5.80109 11.25 6 11.25ZM13.875 7.875C13.7239 7.87455 13.5765 7.82849 13.452 7.74284C13.3276 7.65719 13.2319 7.53595 13.1775 7.395C13.1239 7.21938 13.0187 7.06395 12.8756 6.94892C12.7325 6.83389 12.558 6.76458 12.375 6.75C12.192 6.76458 12.0175 6.83389 11.8744 6.94892C11.7313 7.06395 11.6261 7.21938 11.5725 7.395C11.4913 7.56597 11.3484 7.6999 11.1725 7.76992C10.9967 7.83994 10.8009 7.84089 10.6243 7.77256C10.4478 7.70423 10.3037 7.57168 10.2208 7.4015C10.1379 7.23132 10.1225 7.0361 10.1775 6.855C10.328 6.39064 10.6217 5.98588 11.0165 5.69881C11.4113 5.41174 11.8869 5.25711 12.375 5.25711C12.8631 5.25711 13.3387 5.41174 13.7335 5.69881C14.1283 5.98588 14.422 6.39064 14.5725 6.855C14.6435 7.04003 14.6385 7.24566 14.5584 7.42694C14.4782 7.60823 14.3296 7.75044 14.145 7.8225C14.0596 7.85835 13.9677 7.87622 13.875 7.875Z" fill="#9BB167"/>
</svg>
