<svg width="20" height="20" viewBox="0 0 20 20" fill="none" xmlns="http://www.w3.org/2000/svg">
<path d="M10 20C7.34784 20 4.8043 18.9464 2.92893 17.0711C1.05357 15.1957 0 12.6522 0 10C0 7.34784 1.05357 4.8043 2.92893 2.92893C4.8043 1.05357 7.34784 0 10 0C12.6522 0 15.1957 1.05357 17.0711 2.92893C18.9464 4.8043 20 7.34784 20 10C20 12.6522 18.9464 15.1957 17.0711 17.0711C15.1957 18.9464 12.6522 20 10 20ZM6.5 9C6.89782 9 7.27936 8.84196 7.56066 8.56066C7.84196 8.27936 8 7.89782 8 7.5C8 7.10218 7.84196 6.72064 7.56066 6.43934C7.27936 6.15804 6.89782 6 6.5 6C6.10218 6 5.72064 6.15804 5.43934 6.43934C5.15804 6.72064 5 7.10218 5 7.5C5 7.89782 5.15804 8.27936 5.43934 8.56066C5.72064 8.84196 6.10218 9 6.5 9ZM13.5 9C13.8978 9 14.2794 8.84196 14.5607 8.56066C14.842 8.27936 15 7.89782 15 7.5C15 7.10218 14.842 6.72064 14.5607 6.43934C14.2794 6.15804 13.8978 6 13.5 6C13.1022 6 12.7206 6.15804 12.4393 6.43934C12.158 6.72064 12 7.10218 12 7.5C12 7.89782 12.158 8.27936 12.4393 8.56066C12.7206 8.84196 13.1022 9 13.5 9ZM15.66 12H4.34C4.75228 13.172 5.5182 14.1871 6.53204 14.9052C7.54587 15.6233 8.75762 16.0089 10 16.0089C11.2424 16.0089 12.4541 15.6233 13.468 14.9052C14.4818 14.1871 15.2477 13.172 15.66 12Z" fill="#FFCE5C"/>
</svg>
