<svg width="18" height="18" viewBox="0 0 18 18" fill="none" xmlns="http://www.w3.org/2000/svg">
<path d="M6.80614 2.39331e-06C7.39315 -0.000772403 7.96495 0.186593 8.43763 0.534602V17.2107C7.84977 17.7206 7.09741 18.0009 6.31917 18C5.63844 17.9998 4.97503 17.7855 4.4228 17.3875C3.87058 16.9896 3.45752 16.428 3.24206 15.7824L3.07329 15.2743C2.31536 15.1837 1.60811 14.8469 1.06004 14.3157C0.511972 13.7844 0.153359 13.0881 0.0392157 12.3334C-0.0749272 11.5788 0.0617048 10.8075 0.428151 10.138C0.794596 9.46847 1.37062 8.93764 2.06784 8.62695C1.70083 8.31072 1.40642 7.91902 1.2047 7.4786C1.00298 7.03818 0.898711 6.55941 0.899017 6.075C0.89919 5.21873 1.22487 4.39453 1.81009 3.76938C2.39532 3.14422 3.19632 2.76484 4.05083 2.7081C4.06323 1.98563 4.35896 1.29695 4.87433 0.790407C5.3897 0.283866 6.08346 1.41518e-05 6.80614 2.39331e-06ZM11.1943 2.39331e-06C11.917 1.41518e-05 12.6107 0.283866 13.1261 0.790407C13.6415 1.29695 13.9372 1.98563 13.9496 2.7081C14.8041 2.76484 15.6051 3.14422 16.1903 3.76938C16.7756 4.39453 17.1012 5.21873 17.1014 6.075C17.1017 6.55933 16.9974 7.03801 16.7956 7.47835C16.5939 7.91869 16.2995 8.31032 15.9326 8.6265C16.6297 8.93733 17.2056 9.46822 17.572 10.1378C17.9383 10.8073 18.0749 11.5785 17.9608 12.3331C17.8467 13.0877 17.4881 13.784 16.9401 14.3153C16.3922 14.8466 15.685 15.1835 14.9271 15.2743L14.7584 15.7828C14.5428 16.4284 14.1297 16.9898 13.5775 17.3877C13.0253 17.7856 12.3619 17.9998 11.6813 18C10.8711 18 10.1312 17.7016 9.5628 17.2107V0.534602C10.0355 0.186593 10.6073 -0.000772403 11.1943 2.39331e-06Z" fill="#9BB167"/>
</svg>
