<svg width="16" height="16" viewBox="0 0 16 16" fill="none" xmlns="http://www.w3.org/2000/svg">
<path d="M7.91415 6.33122C8.27791 6.33122 8.63809 6.25957 8.97416 6.12037C9.31022 5.98117 9.61557 5.77714 9.87278 5.51993C10.13 5.26272 10.334 4.95737 10.4732 4.6213C10.6124 4.28524 10.6841 3.92505 10.6841 3.5613C10.6841 3.19755 10.6124 2.83736 10.4732 2.5013C10.334 2.16524 10.13 1.85988 9.87278 1.60267C9.61557 1.34546 9.31022 1.14143 8.97416 1.00223C8.63809 0.863028 8.27791 0.791382 7.91415 0.791382C7.17953 0.791382 6.47499 1.08321 5.95553 1.60267C5.43606 2.12213 5.14423 2.82667 5.14423 3.5613C5.14423 4.29593 5.43606 5.00047 5.95553 5.51993C6.47499 6.03939 7.17953 6.33122 7.91415 6.33122ZM0.791504 14.5618V15.0367H15.0368V14.5618C15.0368 12.7891 15.0368 11.9027 14.6918 11.2253C14.3883 10.6296 13.904 10.1454 13.3084 9.8419C12.6309 9.49684 11.7446 9.49684 9.97181 9.49684H5.8565C4.08375 9.49684 3.19738 9.49684 2.51993 9.8419C1.92431 10.1454 1.44005 10.6296 1.13656 11.2253C0.791504 11.9027 0.791504 12.7891 0.791504 14.5618Z" fill="#9BB167" stroke="#9BB167" stroke-width="1.58281" stroke-linecap="round" stroke-linejoin="round"/>
</svg>
