<svg width="65" height="62" viewBox="0 0 65 62" fill="none" xmlns="http://www.w3.org/2000/svg">
<path d="M17.6297 15.3682C19.1503 15.3662 20.6314 15.8516 21.8558 16.7532V59.9552C20.333 61.2762 18.3842 62.0024 16.3684 62C14.6051 61.9994 12.8867 61.4443 11.4563 60.4133C10.0259 59.3823 8.9559 57.9276 8.39782 56.2549L7.96065 54.9388C5.9974 54.7039 4.16543 53.8314 2.74579 52.4551C1.32615 51.0789 0.39724 49.2748 0.101579 47.3198C-0.194082 45.3648 0.159832 43.3668 1.10903 41.6323C2.05822 39.8977 3.55027 38.5226 5.35627 37.7176C4.40562 36.8984 3.643 35.8837 3.12049 34.7427C2.59799 33.6017 2.32791 32.3614 2.3287 31.1064C2.32915 28.8881 3.17276 26.7529 4.68864 25.1333C6.20452 23.5138 8.27933 22.531 10.4928 22.384C10.5249 20.5123 11.2909 18.7281 12.6258 17.4159C13.9608 16.1036 15.7578 15.3682 17.6297 15.3682ZM28.9962 15.3682C30.8682 15.3682 32.6652 16.1036 34.0001 17.4159C35.3351 18.7281 36.1011 20.5123 36.1332 22.384C38.3467 22.531 40.4215 23.5138 41.9374 25.1333C43.4532 26.7529 44.2969 28.8881 44.2973 31.1064C44.2979 32.3612 44.0278 33.6013 43.5053 34.742C42.9828 35.8828 42.2202 36.8974 41.2697 37.7165C43.0755 38.5217 44.5672 39.8971 45.5162 41.6316C46.4651 43.3662 46.8189 45.3641 46.5233 47.319C46.2277 49.2739 45.299 51.0779 43.8796 52.4543C42.4601 53.8307 40.6284 54.7034 38.6653 54.9388L38.2282 56.2561C37.6699 57.9285 36.5999 59.383 35.1695 60.4138C33.7391 61.4446 32.0208 61.9995 30.2576 62C28.1592 62 26.2426 61.2271 24.7702 59.9552V16.7532C25.9946 15.8516 27.4757 15.3662 28.9962 15.3682Z" fill="#F2F4EB"/>
<path d="M62.5379 24.3296L54.0225 15.8143C53.3467 16.3549 52.5695 16.7829 51.691 17.0983C50.8124 17.4137 49.8775 17.5714 48.8863 17.5714C46.4308 17.5714 44.3529 16.7208 42.6525 15.0195C40.9521 13.3182 40.1015 11.2403 40.1006 8.7857C40.0997 6.33111 40.9503 4.25318 42.6525 2.55191C44.3547 0.850636 46.4326 0 48.8863 0C51.34 0 53.4184 0.850636 55.1214 2.55191C56.8245 4.25318 57.6747 6.33111 57.672 8.7857C57.672 9.77691 57.5143 10.7118 57.1989 11.5904C56.8835 12.4689 56.4555 13.2461 55.9148 13.922L64.4302 22.4373L62.5379 24.3296ZM48.8863 14.8681C50.5758 14.8681 52.0122 14.277 53.1953 13.0947C54.3785 11.9125 54.9696 10.4762 54.9687 8.7857C54.9678 7.09524 54.3767 5.65934 53.1953 4.478C52.014 3.29666 50.5776 2.70509 48.8863 2.70329C47.1949 2.70149 45.759 3.29306 44.5786 4.478C43.3982 5.66295 42.8066 7.09884 42.8039 8.7857C42.8012 10.4726 43.3927 11.9089 44.5786 13.0947C45.7644 14.2806 47.2003 14.8717 48.8863 14.8681Z" fill="#F2F4EB"/>
</svg>
