<svg width="207" height="185" viewBox="0 0 207 185" fill="none" xmlns="http://www.w3.org/2000/svg">
<path d="M2.4 175L7.84 147H11.88L18.7 164.94L25.52 147H29.56L35 175H30.02L26.66 157.68L20.36 174.36H17.02L10.72 157.68L7.38 175H2.4ZM38.8416 155H43.7216V175H38.8416V155ZM41.3216 152.42C40.6016 152.42 39.9949 152.187 39.5016 151.72C39.0082 151.24 38.7616 150.64 38.7616 149.92C38.7616 149.213 39.0082 148.62 39.5016 148.14C39.9949 147.66 40.5949 147.42 41.3016 147.42C42.0082 147.42 42.6016 147.66 43.0816 148.14C43.5749 148.62 43.8216 149.213 43.8216 149.92C43.8216 150.64 43.5816 151.24 43.1016 151.72C42.6216 152.187 42.0282 152.42 41.3216 152.42ZM66.5328 162.36V175H61.6528V163.64C61.6528 162.853 61.4595 162.14 61.0728 161.5C60.6861 160.847 60.1661 160.333 59.5128 159.96C58.8728 159.573 58.1595 159.38 57.3728 159.38C56.5861 159.38 55.8661 159.573 55.2128 159.96C54.5728 160.333 54.0595 160.847 53.6728 161.5C53.2995 162.14 53.1128 162.853 53.1128 163.64V175H48.2328L48.2128 155H53.0928L53.1128 156.78C53.7928 156.06 54.6061 155.493 55.5528 155.08C56.4995 154.653 57.5195 154.44 58.6128 154.44C60.0661 154.44 61.3928 154.8 62.5928 155.52C63.7928 156.227 64.7461 157.18 65.4528 158.38C66.1728 159.567 66.5328 160.893 66.5328 162.36ZM85.0869 145H89.9669V175H85.0869V172.5C84.4469 173.393 83.6402 174.12 82.6669 174.68C81.6935 175.24 80.5669 175.52 79.2869 175.52C77.8335 175.52 76.4735 175.247 75.2069 174.7C73.9402 174.153 72.8202 173.4 71.8469 172.44C70.8869 171.467 70.1335 170.347 69.5869 169.08C69.0402 167.813 68.7669 166.453 68.7669 165C68.7669 163.547 69.0402 162.187 69.5869 160.92C70.1335 159.653 70.8869 158.54 71.8469 157.58C72.8202 156.607 73.9402 155.847 75.2069 155.3C76.4735 154.753 77.8335 154.48 79.2869 154.48C80.5669 154.48 81.6935 154.76 82.6669 155.32C83.6402 155.867 84.4469 156.593 85.0869 157.5V145ZM79.3469 170.82C80.3869 170.82 81.3069 170.56 82.1069 170.04C82.9069 169.52 83.5335 168.82 83.9869 167.94C84.4402 167.047 84.6669 166.067 84.6669 165C84.6669 163.92 84.4402 162.94 83.9869 162.06C83.5335 161.167 82.9002 160.46 82.0869 159.94C81.2869 159.42 80.3735 159.16 79.3469 159.16C78.3202 159.16 77.3802 159.427 76.5269 159.96C75.6869 160.48 75.0135 161.18 74.5069 162.06C74.0135 162.94 73.7669 163.92 73.7669 165C73.7669 166.08 74.0202 167.06 74.5269 167.94C75.0335 168.82 75.7069 169.52 76.5469 170.04C77.4002 170.56 78.3335 170.82 79.3469 170.82ZM104.692 175.52C103.145 175.52 101.658 175.28 100.232 174.8C98.8182 174.307 97.5782 173.607 96.5116 172.7C95.4449 171.78 94.6782 170.68 94.2116 169.4L98.7916 167.72C98.9782 168.253 99.3582 168.74 99.9316 169.18C100.505 169.62 101.205 169.973 102.032 170.24C102.858 170.507 103.745 170.64 104.692 170.64C105.665 170.64 106.572 170.493 107.412 170.2C108.265 169.893 108.952 169.473 109.472 168.94C109.992 168.393 110.252 167.76 110.252 167.04C110.252 166.307 109.978 165.707 109.432 165.24C108.885 164.76 108.185 164.38 107.332 164.1C106.478 163.82 105.598 163.607 104.692 163.46C102.705 163.153 100.925 162.68 99.3516 162.04C97.7782 161.4 96.5316 160.513 95.6116 159.38C94.7049 158.247 94.2516 156.78 94.2516 154.98C94.2516 153.287 94.7382 151.807 95.7116 150.54C96.6849 149.273 97.9649 148.287 99.5516 147.58C101.138 146.873 102.852 146.52 104.692 146.52C106.225 146.52 107.705 146.76 109.132 147.24C110.558 147.72 111.805 148.42 112.872 149.34C113.952 150.26 114.725 151.367 115.192 152.66L110.592 154.32C110.405 153.787 110.025 153.3 109.452 152.86C108.878 152.42 108.178 152.073 107.352 151.82C106.525 151.553 105.638 151.42 104.692 151.42C103.745 151.407 102.845 151.56 101.992 151.88C101.152 152.187 100.465 152.607 99.9316 153.14C99.3982 153.673 99.1316 154.287 99.1316 154.98C99.1316 155.873 99.3782 156.547 99.8716 157C100.378 157.453 101.052 157.787 101.892 158C102.732 158.2 103.665 158.387 104.692 158.56C106.558 158.853 108.285 159.347 109.872 160.04C111.458 160.733 112.732 161.66 113.692 162.82C114.652 163.967 115.132 165.373 115.132 167.04C115.132 168.733 114.652 170.22 113.692 171.5C112.732 172.767 111.458 173.753 109.872 174.46C108.285 175.167 106.558 175.52 104.692 175.52ZM131.187 168.98L135.587 171.36C134.667 172.613 133.514 173.62 132.127 174.38C130.741 175.14 129.227 175.52 127.587 175.52C125.747 175.52 124.067 175.047 122.547 174.1C121.041 173.153 119.834 171.887 118.927 170.3C118.034 168.7 117.587 166.933 117.587 165C117.587 163.533 117.847 162.167 118.367 160.9C118.887 159.62 119.601 158.5 120.507 157.54C121.427 156.567 122.494 155.807 123.707 155.26C124.921 154.713 126.214 154.44 127.587 154.44C129.227 154.44 130.741 154.82 132.127 155.58C133.514 156.34 134.667 157.36 135.587 158.64L131.187 161C130.721 160.467 130.167 160.053 129.527 159.76C128.901 159.467 128.254 159.32 127.587 159.32C126.627 159.32 125.761 159.587 124.987 160.12C124.214 160.64 123.601 161.333 123.147 162.2C122.694 163.053 122.467 163.987 122.467 165C122.467 166 122.694 166.933 123.147 167.8C123.601 168.653 124.214 169.34 124.987 169.86C125.761 170.38 126.627 170.64 127.587 170.64C128.281 170.64 128.941 170.493 129.567 170.2C130.194 169.893 130.734 169.487 131.187 168.98ZM153.473 155H158.353V175H153.473L153.253 172.52C152.706 173.413 151.98 174.14 151.073 174.7C150.18 175.247 149.12 175.52 147.893 175.52C146.413 175.52 145.026 175.24 143.733 174.68C142.44 174.12 141.3 173.347 140.313 172.36C139.34 171.373 138.573 170.233 138.013 168.94C137.466 167.647 137.193 166.26 137.193 164.78C137.193 163.353 137.453 162.013 137.973 160.76C138.506 159.507 139.246 158.407 140.193 157.46C141.14 156.513 142.233 155.773 143.473 155.24C144.713 154.707 146.046 154.44 147.473 154.44C148.793 154.44 149.973 154.733 151.013 155.32C152.066 155.907 152.96 156.653 153.693 157.56L153.473 155ZM147.773 170.82C148.813 170.82 149.733 170.56 150.533 170.04C151.333 169.52 151.96 168.82 152.413 167.94C152.866 167.047 153.093 166.067 153.093 165C153.093 163.92 152.866 162.94 152.413 162.06C151.96 161.167 151.326 160.46 150.513 159.94C149.713 159.42 148.8 159.16 147.773 159.16C146.746 159.16 145.806 159.427 144.953 159.96C144.113 160.48 143.44 161.18 142.933 162.06C142.44 162.94 142.193 163.92 142.193 165C142.193 166.08 142.446 167.06 142.953 167.94C143.46 168.82 144.133 169.52 144.973 170.04C145.826 170.56 146.76 170.82 147.773 170.82ZM167.058 185H162.178V155H167.058V157.54C167.712 156.633 168.512 155.9 169.458 155.34C170.418 154.767 171.538 154.48 172.818 154.48C174.285 154.48 175.652 154.753 176.918 155.3C178.185 155.847 179.298 156.607 180.258 157.58C181.232 158.54 181.985 159.653 182.518 160.92C183.065 162.187 183.338 163.547 183.338 165C183.338 166.453 183.065 167.82 182.518 169.1C181.985 170.38 181.232 171.507 180.258 172.48C179.298 173.44 178.185 174.193 176.918 174.74C175.652 175.287 174.285 175.56 172.818 175.56C171.538 175.56 170.418 175.28 169.458 174.72C168.512 174.147 167.712 173.407 167.058 172.5V185ZM172.758 159.18C171.745 159.18 170.838 159.447 170.038 159.98C169.238 160.5 168.612 161.2 168.158 162.08C167.705 162.96 167.478 163.933 167.478 165C167.478 166.067 167.705 167.047 168.158 167.94C168.612 168.82 169.238 169.527 170.038 170.06C170.838 170.58 171.745 170.84 172.758 170.84C173.785 170.84 174.725 170.58 175.578 170.06C176.432 169.54 177.112 168.84 177.618 167.96C178.125 167.067 178.378 166.08 178.378 165C178.378 163.933 178.125 162.96 177.618 162.08C177.112 161.2 176.432 160.5 175.578 159.98C174.738 159.447 173.798 159.18 172.758 159.18ZM195.193 175.52C193.353 175.52 191.673 175.047 190.153 174.1C188.647 173.153 187.44 171.88 186.533 170.28C185.64 168.68 185.193 166.913 185.193 164.98C185.193 163.527 185.453 162.167 185.973 160.9C186.493 159.62 187.207 158.5 188.113 157.54C189.033 156.567 190.1 155.807 191.313 155.26C192.527 154.713 193.82 154.44 195.193 154.44C196.753 154.44 198.18 154.773 199.473 155.44C200.78 156.093 201.887 156.993 202.793 158.14C203.7 159.287 204.36 160.593 204.773 162.06C205.187 163.527 205.28 165.06 205.053 166.66H190.433C190.62 167.407 190.927 168.08 191.353 168.68C191.78 169.267 192.32 169.74 192.973 170.1C193.627 170.447 194.367 170.627 195.193 170.64C196.047 170.653 196.82 170.453 197.513 170.04C198.22 169.613 198.807 169.04 199.273 168.32L204.253 169.48C203.44 171.253 202.227 172.707 200.613 173.84C199 174.96 197.193 175.52 195.193 175.52ZM190.273 163H200.113C199.967 162.2 199.653 161.48 199.173 160.84C198.707 160.187 198.127 159.667 197.433 159.28C196.74 158.893 195.993 158.7 195.193 158.7C194.393 158.7 193.653 158.893 192.973 159.28C192.293 159.653 191.713 160.167 191.233 160.82C190.767 161.46 190.447 162.187 190.273 163Z" fill="#372315"/>
<path d="M91.8203 31.5833C94.9451 31.5792 97.989 32.5767 100.505 34.4296V123.214C97.3759 125.929 93.3708 127.422 89.228 127.417C85.6044 127.415 82.0728 126.275 79.1332 124.156C76.1935 122.037 73.9946 119.047 72.8477 115.61L71.9493 112.905C67.9146 112.422 64.1497 110.629 61.2322 107.801C58.3147 104.973 56.4057 101.265 55.7981 97.2473C55.1904 93.2296 55.9178 89.1234 57.8685 85.5588C59.8192 81.9942 62.8855 79.168 66.597 77.5138C64.6433 75.8302 63.0761 73.7448 62.0022 71.3999C60.9284 69.0551 60.3734 66.5061 60.375 63.9271C60.3759 59.3682 62.1097 54.9801 65.2249 51.6518C68.3402 48.3234 72.6042 46.3035 77.153 46.0014C77.219 42.155 78.7933 38.4884 81.5368 35.7915C84.2802 33.0946 87.9733 31.5834 91.8203 31.5833ZM115.18 31.5833C119.027 31.5834 122.72 33.0946 125.463 35.7915C128.207 38.4884 129.781 42.155 129.847 46.0014C134.396 46.3035 138.66 48.3234 141.775 51.6518C144.89 54.9801 146.624 59.3682 146.625 63.9271C146.626 66.5057 146.071 69.0542 144.997 71.3986C143.924 73.743 142.356 75.8281 140.403 77.5115C144.114 79.1663 147.18 81.9928 149.13 85.5575C151.08 89.1221 151.807 93.2281 151.2 97.2457C150.592 101.263 148.684 104.971 145.767 107.799C142.849 110.628 139.085 112.421 135.051 112.905L134.152 115.612C133.005 119.049 130.806 122.038 127.866 124.157C124.927 126.275 121.395 127.416 117.772 127.417C113.459 127.417 109.521 125.828 106.495 123.214V34.4296C109.011 32.5767 112.055 31.5792 115.18 31.5833Z" fill="#4F3422"/>
<path d="M184.111 50L166.611 32.5C165.222 33.6111 163.625 34.4907 161.819 35.1389C160.014 35.787 158.093 36.1111 156.056 36.1111C151.009 36.1111 146.739 34.363 143.244 30.8667C139.75 27.3704 138.002 23.1 138 18.0556C137.998 13.0111 139.746 8.74074 143.244 5.24444C146.743 1.74815 151.013 0 156.056 0C161.098 0 165.369 1.74815 168.869 5.24444C172.369 8.74074 174.117 13.0111 174.111 18.0556C174.111 20.0926 173.787 22.0139 173.139 23.8194C172.491 25.625 171.611 27.2222 170.5 28.6111L188 46.1111L184.111 50ZM156.056 30.5556C159.528 30.5556 162.48 29.3407 164.911 26.9111C167.343 24.4815 168.557 21.5296 168.556 18.0556C168.554 14.5815 167.339 11.6306 164.911 9.20278C162.483 6.775 159.531 5.55926 156.056 5.55556C152.58 5.55185 149.629 6.76759 147.203 9.20278C144.777 11.638 143.561 14.5889 143.556 18.0556C143.55 21.5222 144.766 24.4741 147.203 26.9111C149.64 29.3481 152.591 30.563 156.056 30.5556Z" fill="#ED7E1C"/>
</svg>
