<svg width="24" height="24" viewBox="0 0 24 24" fill="none" xmlns="http://www.w3.org/2000/svg">
<path d="M1.71436 12C1.71436 6.31972 6.31978 1.71429 12.0001 1.71429C17.6804 1.71429 22.2858 6.31972 22.2858 12C22.2858 17.6803 17.6804 22.2857 12.0001 22.2857C6.31978 22.2857 1.71436 17.6803 1.71436 12ZM15.0001 11.1429C15.3411 11.1429 15.6681 11.0074 15.9092 10.7663C16.1503 10.5252 16.2858 10.1981 16.2858 9.85715C16.2858 9.51616 16.1503 9.18913 15.9092 8.94801C15.6681 8.7069 15.3411 8.57144 15.0001 8.57144C14.6591 8.57144 14.3321 8.7069 14.0909 8.94801C13.8498 9.18913 13.7144 9.51616 13.7144 9.85715C13.7144 10.1981 13.8498 10.5252 14.0909 10.7663C14.3321 11.0074 14.6591 11.1429 15.0001 11.1429ZM10.2858 9.85715C10.2858 9.51616 10.1503 9.18913 9.90921 8.94801C9.66809 8.7069 9.34106 8.57144 9.00007 8.57144C8.65908 8.57144 8.33205 8.7069 8.09093 8.94801C7.84981 9.18913 7.71436 9.51616 7.71436 9.85715C7.71436 10.1981 7.84981 10.5252 8.09093 10.7663C8.33205 11.0074 8.65908 11.1429 9.00007 11.1429C9.34106 11.1429 9.66809 11.0074 9.90921 10.7663C10.1503 10.5252 10.2858 10.1981 10.2858 9.85715ZM7.13836 14.6829C6.99741 14.7788 6.90035 14.9268 6.86853 15.0943C6.8367 15.2618 6.87271 15.4351 6.96864 15.576L6.97036 15.5786L6.97207 15.5812L6.97893 15.5897C7.00562 15.6279 7.03334 15.6653 7.06207 15.702C7.11778 15.7732 7.1975 15.87 7.30207 15.984C7.58331 16.2898 7.89556 16.5656 8.23378 16.8069C9.06521 17.406 10.3184 18 12.0001 18C13.6818 18 14.9358 17.4052 15.7664 16.8077C16.105 16.5659 16.4175 16.2896 16.6989 15.9832C16.806 15.8656 16.9075 15.7432 17.0032 15.6163L17.0221 15.5906L17.0281 15.582L17.0298 15.5786L17.0306 15.5769L17.0315 15.576C17.1277 15.4352 17.1639 15.2619 17.1323 15.0943C17.1008 14.9268 17.0039 14.7786 16.8631 14.6824C16.7222 14.5863 16.549 14.55 16.3814 14.5816C16.2138 14.6132 16.0657 14.71 15.9695 14.8509L15.9635 14.8594L15.9249 14.9109C15.8889 14.9583 15.8309 15.0263 15.7509 15.1149C15.5915 15.2889 15.3464 15.5263 15.0155 15.7637C14.3572 16.2377 13.3612 16.7143 12.0001 16.7143C10.6389 16.7143 9.64293 16.2377 8.98464 15.7637C8.71799 15.5731 8.47156 15.3557 8.24921 15.1149C8.17458 15.0335 8.10393 14.9485 8.0375 14.8603L8.02978 14.85C7.93347 14.71 7.78562 14.6138 7.61857 14.5824C7.45152 14.5511 7.27886 14.5872 7.13836 14.6829Z" fill="#9BB167"/>
</svg>
