<svg width="20" height="22" viewBox="0 0 20 22" fill="none" xmlns="http://www.w3.org/2000/svg">
<path fill-rule="evenodd" clip-rule="evenodd" d="M19.1 5.55043L19.13 5.57443C19.667 5.98743 20 6.62743 20 7.33143V18.5874C20.0016 19.0349 19.9148 19.4783 19.7447 19.8922C19.5745 20.3061 19.3243 20.6824 19.0084 20.9994C18.6926 21.3163 18.3172 21.5679 17.9039 21.7395C17.4906 21.9111 17.0475 21.9994 16.6 21.9994H3.40002C2.95252 21.9994 2.50941 21.9111 2.09612 21.7395C1.68283 21.5679 1.30748 21.3163 0.991605 20.9994C0.675729 20.6824 0.425537 20.3061 0.255378 19.8922C0.0852197 19.4783 -0.00155825 19.0349 2.11784e-05 18.5874V7.33143C2.11784e-05 6.62743 0.333021 5.98743 0.870021 5.57443L0.899021 5.55143L8.68902 0.419434C9.06409 0.14683 9.51585 0 9.97952 0C10.4432 0 10.895 0.14683 11.27 0.419434L19.1 5.55043ZM8.00002 11.9994V19.9994H6.00002V11.7994C6.00002 10.8074 6.80802 9.99943 7.80002 9.99943H12.2C13.192 9.99943 14 10.8074 14 11.7994V19.9994H12V11.9994H8.00002Z" fill="#928D86"/>
</svg>
